<mxfile host="Electron" agent="Mozilla/5.0 (Windows NT 10.0; Win64; x64) AppleWebKit/537.36 (KHTML, like Gecko) draw.io/24.7.17 Chrome/128.0.6613.36 Electron/32.0.1 Safari/537.36" version="24.7.17" pages="2">
  <diagram name="Page-1" id="cdArwuCeAzDDDQEp3-SV">
    <mxGraphModel dx="3166" dy="4562" grid="1" gridSize="10" guides="1" tooltips="1" connect="1" arrows="1" fold="1" page="1" pageScale="1" pageWidth="1100" pageHeight="850" math="0" shadow="0">
      <root>
        <mxCell id="0" />
        <mxCell id="1" parent="0" />
        <mxCell id="8VbZucI2dvGOZZcdEmdP-4" value="&lt;b style=&quot;font-size: 22px;&quot;&gt;CM&lt;/b&gt;" style="rounded=1;whiteSpace=wrap;html=1;fillColor=#f5f5f5;fontColor=#333333;strokeColor=#666666;strokeWidth=2;verticalAlign=top;fontSize=22;" parent="1" vertex="1">
          <mxGeometry x="-240" y="-3280" width="320" height="365.5" as="geometry" />
        </mxCell>
        <mxCell id="r4h9uiGMZSQ4bL8BECDt-79" value="&lt;b style=&quot;font-size: 22px;&quot;&gt;RG PSEUDO BRIDGE MODE&lt;/b&gt;" style="rounded=1;whiteSpace=wrap;html=1;fillColor=#f5f5f5;fontColor=#333333;strokeColor=#666666;strokeWidth=2;verticalAlign=top;fontSize=22;" parent="1" vertex="1">
          <mxGeometry x="-1040" y="-2534.5" width="800" height="646.25" as="geometry" />
        </mxCell>
        <mxCell id="r4h9uiGMZSQ4bL8BECDt-80" value="&lt;div style=&quot;font-size: 20px;&quot;&gt;&lt;font color=&quot;#82b366&quot; style=&quot;font-size: 20px;&quot;&gt;&lt;span style=&quot;font-size: 20px;&quot;&gt;&lt;b style=&quot;font-size: 20px;&quot;&gt;brlan0&lt;/b&gt;&lt;/span&gt;&lt;/font&gt;&lt;/div&gt;" style="rounded=1;whiteSpace=wrap;html=1;fillColor=#d5e8d4;strokeColor=#82b366;verticalAlign=top;strokeWidth=4;fontSize=20;" parent="1" vertex="1">
          <mxGeometry x="-960" y="-2485.75" width="670" height="290" as="geometry" />
        </mxCell>
        <mxCell id="r4h9uiGMZSQ4bL8BECDt-81" value="&lt;font color=&quot;#d6b656&quot; style=&quot;font-size: 16px;&quot;&gt;erouter0&lt;/font&gt;&lt;div&gt;&lt;font color=&quot;#d6b656&quot; style=&quot;font-size: 16px;&quot;&gt;(=cm0)&lt;/font&gt;&lt;/div&gt;" style="rounded=0;whiteSpace=wrap;html=1;fillColor=#fff2cc;strokeColor=#d6b656;fontStyle=1;strokeWidth=2;fontSize=16;verticalAlign=top;" parent="1" vertex="1">
          <mxGeometry x="-490" y="-2400.75" width="170" height="110" as="geometry" />
        </mxCell>
        <mxCell id="P5K1z4J7jGN9G_LRExKV-67" value="&lt;b style=&quot;font-size: 22px;&quot;&gt;PSEUDO BRIDGE MODE XGSPON&lt;/b&gt;" style="rounded=1;whiteSpace=wrap;html=1;fillColor=#f5f5f5;fontColor=#333333;strokeColor=#666666;strokeWidth=2;verticalAlign=top;fontSize=22;" parent="1" vertex="1">
          <mxGeometry x="1902.5" y="-2387.5" width="880" height="507.5" as="geometry" />
        </mxCell>
        <mxCell id="P5K1z4J7jGN9G_LRExKV-86" value="&lt;font color=&quot;#d6b656&quot;&gt;erouter0&lt;/font&gt;" style="rounded=0;whiteSpace=wrap;html=1;fillColor=#fff2cc;strokeColor=#d6b656;fontStyle=1;strokeWidth=2;fontSize=16;verticalAlign=top;" parent="1" vertex="1">
          <mxGeometry x="2295" y="-2030" width="177.5" height="102.5" as="geometry" />
        </mxCell>
        <mxCell id="r4h9uiGMZSQ4bL8BECDt-125" value="" style="rounded=1;whiteSpace=wrap;html=1;fillColor=#f5f5f5;fontColor=#333333;strokeColor=#666666;strokeWidth=2;verticalAlign=top;fontSize=22;" parent="1" vertex="1">
          <mxGeometry x="-1025" y="-1582.5" width="595" height="580" as="geometry" />
        </mxCell>
        <mxCell id="r4h9uiGMZSQ4bL8BECDt-115" value="ccsp-cm-agent&lt;div&gt;&lt;br&gt;&lt;/div&gt;&lt;div&gt;determine bridge / router mode&lt;/div&gt;" style="rounded=1;whiteSpace=wrap;html=1;verticalAlign=top;" parent="1" vertex="1">
          <mxGeometry x="-990" y="-1552.5" width="295" height="190" as="geometry" />
        </mxCell>
        <mxCell id="r4h9uiGMZSQ4bL8BECDt-31" value="&lt;b style=&quot;font-size: 22px;&quot;&gt;RG ROUTER MODE&lt;/b&gt;" style="rounded=1;whiteSpace=wrap;html=1;fillColor=#f5f5f5;fontColor=#333333;strokeColor=#666666;strokeWidth=2;verticalAlign=top;fontSize=22;" parent="1" vertex="1">
          <mxGeometry x="-1040" y="-3280" width="800" height="365.5" as="geometry" />
        </mxCell>
        <mxCell id="r4h9uiGMZSQ4bL8BECDt-32" value="&lt;div style=&quot;font-size: 20px;&quot;&gt;&lt;font color=&quot;#d6b656&quot; style=&quot;font-size: 20px;&quot;&gt;&lt;span style=&quot;font-size: 20px;&quot;&gt;&lt;b style=&quot;font-size: 20px;&quot;&gt;erouter0&lt;/b&gt;&lt;/span&gt;&lt;/font&gt;&lt;/div&gt;&lt;div style=&quot;&quot;&gt;&lt;font color=&quot;#d6b656&quot; style=&quot;font-size: 16px;&quot;&gt;10.107.200.x&lt;/font&gt;&lt;/div&gt;" style="rounded=1;whiteSpace=wrap;html=1;fillColor=#fff2cc;strokeColor=#d6b656;verticalAlign=top;strokeWidth=4;fontSize=20;" parent="1" vertex="1">
          <mxGeometry x="-420" y="-3104.5" width="140" height="150" as="geometry" />
        </mxCell>
        <mxCell id="r4h9uiGMZSQ4bL8BECDt-15" value="&lt;font color=&quot;#d6b656&quot; style=&quot;font-size: 16px;&quot;&gt;lbr0&lt;/font&gt;&lt;div&gt;&lt;font color=&quot;#d6b656&quot; style=&quot;font-size: 16px;&quot;&gt;(=cm0)&lt;/font&gt;&lt;/div&gt;" style="rounded=0;whiteSpace=wrap;html=1;fillColor=#fff2cc;strokeColor=#d6b656;fontStyle=1;strokeWidth=2;fontSize=16;" parent="1" vertex="1">
          <mxGeometry x="-398.75" y="-3034.5" width="70" height="57.5" as="geometry" />
        </mxCell>
        <mxCell id="r4h9uiGMZSQ4bL8BECDt-109" value="" style="edgeStyle=orthogonalEdgeStyle;rounded=0;orthogonalLoop=1;jettySize=auto;html=1;endArrow=none;fillColor=#d5e8d4;strokeColor=#82b366;" parent="1" source="r4h9uiGMZSQ4bL8BECDt-33" target="r4h9uiGMZSQ4bL8BECDt-108" edge="1">
          <mxGeometry relative="1" as="geometry">
            <Array as="points">
              <mxPoint x="-650" y="-3029.5" />
              <mxPoint x="-650" y="-3029.5" />
            </Array>
          </mxGeometry>
        </mxCell>
        <mxCell id="r4h9uiGMZSQ4bL8BECDt-33" value="&lt;div style=&quot;font-size: 20px;&quot;&gt;&lt;font color=&quot;#82b366&quot; style=&quot;font-size: 20px;&quot;&gt;&lt;span style=&quot;font-size: 20px;&quot;&gt;&lt;b style=&quot;font-size: 20px;&quot;&gt;brlan0&amp;nbsp;&lt;/b&gt;&lt;/span&gt;&lt;/font&gt;&lt;span style=&quot;color: rgb(130, 179, 102); background-color: initial;&quot;&gt;192.168.0.1 / 24&lt;/span&gt;&lt;/div&gt;" style="rounded=1;whiteSpace=wrap;html=1;fillColor=#d5e8d4;strokeColor=#82b366;verticalAlign=top;strokeWidth=4;fontSize=20;" parent="1" vertex="1">
          <mxGeometry x="-960" y="-3242.5" width="290" height="300" as="geometry" />
        </mxCell>
        <mxCell id="r4h9uiGMZSQ4bL8BECDt-53" value="" style="edgeStyle=orthogonalEdgeStyle;rounded=0;orthogonalLoop=1;jettySize=auto;html=1;endArrow=none;fillColor=#e1d5e7;strokeColor=#9673a6;" parent="1" source="r4h9uiGMZSQ4bL8BECDt-50" target="r4h9uiGMZSQ4bL8BECDt-51" edge="1">
          <mxGeometry relative="1" as="geometry">
            <mxPoint x="-125" y="-1915.75" as="targetPoint" />
          </mxGeometry>
        </mxCell>
        <mxCell id="r4h9uiGMZSQ4bL8BECDt-50" value="&lt;font color=&quot;#9673a6&quot; style=&quot;font-size: 16px;&quot;&gt;llan0&lt;/font&gt;" style="rounded=0;whiteSpace=wrap;html=1;fillColor=#e1d5e7;strokeColor=#9673a6;fontStyle=1;strokeWidth=2;fontSize=16;" parent="1" vertex="1">
          <mxGeometry x="-790" y="-2272" width="90" height="50" as="geometry" />
        </mxCell>
        <mxCell id="r4h9uiGMZSQ4bL8BECDt-51" value="&lt;font color=&quot;#9673a6&quot; style=&quot;font-size: 16px;&quot;&gt;lan0&lt;/font&gt;&lt;div&gt;&lt;font color=&quot;#9673a6&quot;&gt;&lt;br&gt;&lt;/font&gt;&lt;div&gt;&lt;font color=&quot;#9673a6&quot; style=&quot;font-size: 16px; font-weight: normal;&quot;&gt;192.168.0.1 / 24&lt;/font&gt;&lt;/div&gt;&lt;/div&gt;" style="rounded=0;whiteSpace=wrap;html=1;fillColor=#e1d5e7;strokeColor=#9673a6;fontStyle=1;strokeWidth=2;fontSize=16;" parent="1" vertex="1">
          <mxGeometry x="-840" y="-2175.75" width="190" height="90" as="geometry" />
        </mxCell>
        <mxCell id="r4h9uiGMZSQ4bL8BECDt-56" value="" style="edgeStyle=orthogonalEdgeStyle;rounded=0;orthogonalLoop=1;jettySize=auto;html=1;endArrow=none;fillColor=#fff2cc;strokeColor=#d6b656;" parent="1" source="r4h9uiGMZSQ4bL8BECDt-57" target="r4h9uiGMZSQ4bL8BECDt-15" edge="1">
          <mxGeometry relative="1" as="geometry">
            <mxPoint x="-240" y="-3019.5" as="targetPoint" />
          </mxGeometry>
        </mxCell>
        <mxCell id="r4h9uiGMZSQ4bL8BECDt-57" value="&lt;font color=&quot;#d6b656&quot;&gt;router&lt;/font&gt;&lt;div&gt;&lt;font color=&quot;#d6b656&quot;&gt;interface&lt;/font&gt;&lt;/div&gt;&lt;div&gt;&lt;font color=&quot;#d6b656&quot;&gt;(proxy)&lt;/font&gt;&lt;/div&gt;" style="whiteSpace=wrap;html=1;aspect=fixed;strokeWidth=1;fillColor=#fff2cc;strokeColor=#d6b656;" parent="1" vertex="1">
          <mxGeometry x="-217.5" y="-3034.5" width="57.5" height="57.5" as="geometry" />
        </mxCell>
        <mxCell id="r4h9uiGMZSQ4bL8BECDt-67" value="" style="edgeStyle=orthogonalEdgeStyle;rounded=0;orthogonalLoop=1;jettySize=auto;html=1;endArrow=none;fillColor=#dae8fc;strokeColor=#6c8ebf;" parent="1" source="r4h9uiGMZSQ4bL8BECDt-68" target="r4h9uiGMZSQ4bL8BECDt-75" edge="1">
          <mxGeometry relative="1" as="geometry" />
        </mxCell>
        <mxCell id="r4h9uiGMZSQ4bL8BECDt-68" value="&lt;font color=&quot;#82b366&quot; style=&quot;font-size: 16px;&quot;&gt;eth0&lt;/font&gt;" style="rounded=0;whiteSpace=wrap;html=1;fillColor=#d5e8d4;strokeColor=#82b366;fontStyle=1;strokeWidth=1;fontSize=16;" parent="1" vertex="1">
          <mxGeometry x="-930" y="-3190" width="90" height="50" as="geometry" />
        </mxCell>
        <mxCell id="r4h9uiGMZSQ4bL8BECDt-69" value="" style="edgeStyle=orthogonalEdgeStyle;rounded=0;orthogonalLoop=1;jettySize=auto;html=1;endArrow=none;fillColor=#dae8fc;strokeColor=#6c8ebf;" parent="1" source="r4h9uiGMZSQ4bL8BECDt-70" target="r4h9uiGMZSQ4bL8BECDt-76" edge="1">
          <mxGeometry relative="1" as="geometry" />
        </mxCell>
        <mxCell id="r4h9uiGMZSQ4bL8BECDt-70" value="&lt;span style=&quot;color: rgb(130, 179, 102);&quot;&gt;eth1&lt;/span&gt;" style="rounded=0;whiteSpace=wrap;html=1;fillColor=#d5e8d4;strokeColor=#82b366;fontStyle=1;strokeWidth=1;fontSize=16;" parent="1" vertex="1">
          <mxGeometry x="-930" y="-3135" width="90" height="50" as="geometry" />
        </mxCell>
        <mxCell id="r4h9uiGMZSQ4bL8BECDt-71" value="" style="edgeStyle=orthogonalEdgeStyle;rounded=0;orthogonalLoop=1;jettySize=auto;html=1;endArrow=none;fillColor=#dae8fc;strokeColor=#6c8ebf;" parent="1" source="r4h9uiGMZSQ4bL8BECDt-72" target="r4h9uiGMZSQ4bL8BECDt-77" edge="1">
          <mxGeometry relative="1" as="geometry" />
        </mxCell>
        <mxCell id="r4h9uiGMZSQ4bL8BECDt-72" value="&lt;span style=&quot;color: rgb(130, 179, 102);&quot;&gt;eth2&lt;/span&gt;" style="rounded=0;whiteSpace=wrap;html=1;fillColor=#d5e8d4;strokeColor=#82b366;fontStyle=1;strokeWidth=1;fontSize=16;" parent="1" vertex="1">
          <mxGeometry x="-930" y="-3080" width="90" height="50" as="geometry" />
        </mxCell>
        <mxCell id="r4h9uiGMZSQ4bL8BECDt-73" value="" style="edgeStyle=orthogonalEdgeStyle;rounded=0;orthogonalLoop=1;jettySize=auto;html=1;endArrow=none;fillColor=#dae8fc;strokeColor=#6c8ebf;" parent="1" source="r4h9uiGMZSQ4bL8BECDt-74" target="r4h9uiGMZSQ4bL8BECDt-78" edge="1">
          <mxGeometry relative="1" as="geometry" />
        </mxCell>
        <mxCell id="r4h9uiGMZSQ4bL8BECDt-74" value="&lt;span style=&quot;color: rgb(130, 179, 102);&quot;&gt;eth3&lt;/span&gt;" style="rounded=0;whiteSpace=wrap;html=1;fillColor=#d5e8d4;strokeColor=#82b366;fontStyle=1;strokeWidth=1;fontSize=16;" parent="1" vertex="1">
          <mxGeometry x="-930" y="-3025" width="90" height="50" as="geometry" />
        </mxCell>
        <mxCell id="r4h9uiGMZSQ4bL8BECDt-75" value="LAN" style="whiteSpace=wrap;html=1;aspect=fixed;strokeWidth=3;" parent="1" vertex="1">
          <mxGeometry x="-1040" y="-3190" width="50" height="50" as="geometry" />
        </mxCell>
        <mxCell id="r4h9uiGMZSQ4bL8BECDt-76" value="LAN" style="whiteSpace=wrap;html=1;aspect=fixed;strokeWidth=3;" parent="1" vertex="1">
          <mxGeometry x="-1040" y="-3135" width="50" height="50" as="geometry" />
        </mxCell>
        <mxCell id="r4h9uiGMZSQ4bL8BECDt-77" value="LAN" style="whiteSpace=wrap;html=1;aspect=fixed;strokeWidth=3;" parent="1" vertex="1">
          <mxGeometry x="-1040" y="-3080" width="50" height="50" as="geometry" />
        </mxCell>
        <mxCell id="r4h9uiGMZSQ4bL8BECDt-78" value="LAN" style="whiteSpace=wrap;html=1;aspect=fixed;strokeWidth=3;" parent="1" vertex="1">
          <mxGeometry x="-1040" y="-3025" width="50" height="50" as="geometry" />
        </mxCell>
        <mxCell id="r4h9uiGMZSQ4bL8BECDt-82" value="" style="edgeStyle=orthogonalEdgeStyle;rounded=0;orthogonalLoop=1;jettySize=auto;html=1;endArrow=none;fillColor=#dae8fc;strokeColor=#6c8ebf;" parent="1" source="r4h9uiGMZSQ4bL8BECDt-83" target="r4h9uiGMZSQ4bL8BECDt-92" edge="1">
          <mxGeometry relative="1" as="geometry" />
        </mxCell>
        <mxCell id="r4h9uiGMZSQ4bL8BECDt-83" value="&lt;span style=&quot;color: rgb(130, 179, 102);&quot;&gt;eth0&lt;/span&gt;" style="rounded=0;whiteSpace=wrap;html=1;fillColor=#d5e8d4;strokeColor=#82b366;fontStyle=1;strokeWidth=1;fontSize=16;" parent="1" vertex="1">
          <mxGeometry x="-930" y="-2463.25" width="90" height="50" as="geometry" />
        </mxCell>
        <mxCell id="r4h9uiGMZSQ4bL8BECDt-84" value="" style="edgeStyle=orthogonalEdgeStyle;rounded=0;orthogonalLoop=1;jettySize=auto;html=1;endArrow=none;fillColor=#dae8fc;strokeColor=#6c8ebf;" parent="1" source="r4h9uiGMZSQ4bL8BECDt-85" target="r4h9uiGMZSQ4bL8BECDt-93" edge="1">
          <mxGeometry relative="1" as="geometry" />
        </mxCell>
        <mxCell id="r4h9uiGMZSQ4bL8BECDt-85" value="&lt;span style=&quot;color: rgb(130, 179, 102);&quot;&gt;eth1&lt;/span&gt;" style="rounded=0;whiteSpace=wrap;html=1;fillColor=#d5e8d4;strokeColor=#82b366;fontStyle=1;strokeWidth=1;fontSize=16;" parent="1" vertex="1">
          <mxGeometry x="-930" y="-2408.25" width="90" height="50" as="geometry" />
        </mxCell>
        <mxCell id="r4h9uiGMZSQ4bL8BECDt-86" value="" style="edgeStyle=orthogonalEdgeStyle;rounded=0;orthogonalLoop=1;jettySize=auto;html=1;endArrow=none;fillColor=#dae8fc;strokeColor=#6c8ebf;" parent="1" source="r4h9uiGMZSQ4bL8BECDt-87" target="r4h9uiGMZSQ4bL8BECDt-94" edge="1">
          <mxGeometry relative="1" as="geometry" />
        </mxCell>
        <mxCell id="r4h9uiGMZSQ4bL8BECDt-87" value="&lt;span style=&quot;color: rgb(130, 179, 102);&quot;&gt;eth2&lt;/span&gt;" style="rounded=0;whiteSpace=wrap;html=1;fillColor=#d5e8d4;strokeColor=#82b366;fontStyle=1;strokeWidth=1;fontSize=16;" parent="1" vertex="1">
          <mxGeometry x="-930" y="-2353.25" width="90" height="50" as="geometry" />
        </mxCell>
        <mxCell id="r4h9uiGMZSQ4bL8BECDt-88" value="" style="edgeStyle=orthogonalEdgeStyle;rounded=0;orthogonalLoop=1;jettySize=auto;html=1;endArrow=none;fillColor=#dae8fc;strokeColor=#6c8ebf;" parent="1" source="r4h9uiGMZSQ4bL8BECDt-89" target="r4h9uiGMZSQ4bL8BECDt-95" edge="1">
          <mxGeometry relative="1" as="geometry" />
        </mxCell>
        <mxCell id="r4h9uiGMZSQ4bL8BECDt-89" value="&lt;span style=&quot;color: rgb(130, 179, 102);&quot;&gt;eth3&lt;/span&gt;" style="rounded=0;whiteSpace=wrap;html=1;fillColor=#d5e8d4;strokeColor=#82b366;fontStyle=1;strokeWidth=1;fontSize=16;" parent="1" vertex="1">
          <mxGeometry x="-930" y="-2298.25" width="90" height="50" as="geometry" />
        </mxCell>
        <mxCell id="r4h9uiGMZSQ4bL8BECDt-90" value="" style="edgeStyle=orthogonalEdgeStyle;rounded=0;orthogonalLoop=1;jettySize=auto;html=1;endArrow=none;fillColor=#fff2cc;strokeColor=#d6b656;" parent="1" target="r4h9uiGMZSQ4bL8BECDt-81" edge="1">
          <mxGeometry relative="1" as="geometry">
            <mxPoint x="-240.00000000000045" y="-2345.75" as="sourcePoint" />
          </mxGeometry>
        </mxCell>
        <mxCell id="r4h9uiGMZSQ4bL8BECDt-92" value="LAN" style="whiteSpace=wrap;html=1;aspect=fixed;strokeWidth=3;" parent="1" vertex="1">
          <mxGeometry x="-1040" y="-2463.25" width="50" height="50" as="geometry" />
        </mxCell>
        <mxCell id="r4h9uiGMZSQ4bL8BECDt-93" value="LAN" style="whiteSpace=wrap;html=1;aspect=fixed;strokeWidth=3;" parent="1" vertex="1">
          <mxGeometry x="-1040" y="-2408.25" width="50" height="50" as="geometry" />
        </mxCell>
        <mxCell id="r4h9uiGMZSQ4bL8BECDt-94" value="LAN" style="whiteSpace=wrap;html=1;aspect=fixed;strokeWidth=3;" parent="1" vertex="1">
          <mxGeometry x="-1040" y="-2353.25" width="50" height="50" as="geometry" />
        </mxCell>
        <mxCell id="r4h9uiGMZSQ4bL8BECDt-95" value="LAN" style="whiteSpace=wrap;html=1;aspect=fixed;strokeWidth=3;" parent="1" vertex="1">
          <mxGeometry x="-1040" y="-2298.25" width="50" height="50" as="geometry" />
        </mxCell>
        <mxCell id="r4h9uiGMZSQ4bL8BECDt-191" value="" style="edgeStyle=orthogonalEdgeStyle;rounded=0;orthogonalLoop=1;jettySize=auto;html=1;endArrow=none;" parent="1" source="r4h9uiGMZSQ4bL8BECDt-96" target="r4h9uiGMZSQ4bL8BECDt-107" edge="1">
          <mxGeometry relative="1" as="geometry">
            <Array as="points">
              <mxPoint x="350" y="-2750" />
              <mxPoint x="350" y="-2750" />
            </Array>
          </mxGeometry>
        </mxCell>
        <mxCell id="r4h9uiGMZSQ4bL8BECDt-96" value="&lt;b style=&quot;font-size: 22px;&quot;&gt;&lt;font color=&quot;#d79b00&quot;&gt;CMTS / BNG&lt;/font&gt;&lt;/b&gt;" style="rounded=1;whiteSpace=wrap;html=1;fillColor=#f5f5f5;strokeColor=#666666;strokeWidth=2;verticalAlign=top;fontSize=22;fontColor=#333333;" parent="1" vertex="1">
          <mxGeometry x="165" y="-2742.5" width="530" height="340" as="geometry" />
        </mxCell>
        <mxCell id="r4h9uiGMZSQ4bL8BECDt-105" value="DHCP&lt;div&gt;DNS&lt;/div&gt;" style="shape=parallelogram;perimeter=parallelogramPerimeter;whiteSpace=wrap;html=1;fixedSize=1;" parent="1" vertex="1">
          <mxGeometry x="370" y="-2574.5" width="120" height="60" as="geometry" />
        </mxCell>
        <mxCell id="r4h9uiGMZSQ4bL8BECDt-106" value="iPERF&lt;div&gt;SERVER&lt;/div&gt;" style="shape=parallelogram;perimeter=parallelogramPerimeter;whiteSpace=wrap;html=1;fixedSize=1;fillColor=#f8cecc;strokeColor=#b85450;fontColor=#b85450;" parent="1" vertex="1">
          <mxGeometry x="560" y="-2902.5" width="100" height="60" as="geometry" />
        </mxCell>
        <mxCell id="r4h9uiGMZSQ4bL8BECDt-107" value="&lt;font style=&quot;&quot; color=&quot;#b85450&quot;&gt;&lt;b style=&quot;font-size: 22px;&quot;&gt;ACS &lt;/b&gt;&lt;font style=&quot;font-size: 12px;&quot;&gt;TR069 SERVER&lt;/font&gt;&lt;/font&gt;" style="rounded=1;whiteSpace=wrap;html=1;fillColor=#f8cecc;strokeColor=#b85450;strokeWidth=2;verticalAlign=top;fontSize=22;" parent="1" vertex="1">
          <mxGeometry x="170" y="-2902.5" width="360" height="87.5" as="geometry" />
        </mxCell>
        <mxCell id="r4h9uiGMZSQ4bL8BECDt-110" value="" style="edgeStyle=orthogonalEdgeStyle;rounded=0;orthogonalLoop=1;jettySize=auto;html=1;endArrow=none;fillColor=#fff2cc;strokeColor=#d6b656;" parent="1" source="r4h9uiGMZSQ4bL8BECDt-108" target="r4h9uiGMZSQ4bL8BECDt-32" edge="1">
          <mxGeometry relative="1" as="geometry" />
        </mxCell>
        <mxCell id="r4h9uiGMZSQ4bL8BECDt-108" value="&lt;b&gt;NAT&lt;/b&gt;&lt;div&gt;&lt;b style=&quot;background-color: initial;&quot;&gt;DHCP&lt;/b&gt;&lt;br&gt;&lt;/div&gt;&lt;div&gt;&lt;b style=&quot;background-color: initial;&quot;&gt;DNS&lt;/b&gt;&lt;/div&gt;" style="shape=parallelogram;perimeter=parallelogramPerimeter;whiteSpace=wrap;html=1;fixedSize=1;strokeWidth=2;" parent="1" vertex="1">
          <mxGeometry x="-600" y="-3069.5" width="120" height="80" as="geometry" />
        </mxCell>
        <mxCell id="r4h9uiGMZSQ4bL8BECDt-112" value="" style="edgeStyle=orthogonalEdgeStyle;rounded=0;orthogonalLoop=1;jettySize=auto;html=1;endArrow=none;fillColor=#f8cecc;strokeColor=#b85450;" parent="1" source="r4h9uiGMZSQ4bL8BECDt-113" target="r4h9uiGMZSQ4bL8BECDt-114" edge="1">
          <mxGeometry relative="1" as="geometry">
            <mxPoint x="95" y="-1915.75" as="targetPoint" />
          </mxGeometry>
        </mxCell>
        <mxCell id="r4h9uiGMZSQ4bL8BECDt-113" value="&lt;font color=&quot;#b85450&quot; style=&quot;font-size: 16px;&quot;&gt;lmg0&lt;/font&gt;" style="rounded=0;whiteSpace=wrap;html=1;fillColor=#f8cecc;strokeColor=#b85450;fontStyle=1;strokeWidth=2;fontSize=16;dashed=1;" parent="1" vertex="1">
          <mxGeometry x="-570" y="-2272" width="90" height="50" as="geometry" />
        </mxCell>
        <mxCell id="r4h9uiGMZSQ4bL8BECDt-114" value="&lt;font color=&quot;#b85450&quot; style=&quot;font-size: 16px;&quot;&gt;mg0&lt;/font&gt;&lt;div&gt;&lt;font color=&quot;#b85450&quot;&gt;&lt;br&gt;&lt;/font&gt;&lt;div&gt;&lt;font style=&quot;font-weight: normal;&quot; color=&quot;#b85450&quot;&gt;10.107.200.x / 24&lt;/font&gt;&lt;/div&gt;&lt;/div&gt;" style="rounded=0;whiteSpace=wrap;html=1;fillColor=#f8cecc;strokeColor=#b85450;fontStyle=1;strokeWidth=2;fontSize=16;dashed=1;" parent="1" vertex="1">
          <mxGeometry x="-630" y="-2175.75" width="210" height="90" as="geometry" />
        </mxCell>
        <mxCell id="r4h9uiGMZSQ4bL8BECDt-123" value="" style="edgeStyle=orthogonalEdgeStyle;rounded=0;orthogonalLoop=1;jettySize=auto;html=1;" parent="1" source="r4h9uiGMZSQ4bL8BECDt-301" target="r4h9uiGMZSQ4bL8BECDt-116" edge="1">
          <mxGeometry relative="1" as="geometry">
            <Array as="points">
              <mxPoint x="-725" y="-1402.5" />
            </Array>
          </mxGeometry>
        </mxCell>
        <mxCell id="r4h9uiGMZSQ4bL8BECDt-124" value="" style="edgeStyle=orthogonalEdgeStyle;rounded=0;orthogonalLoop=1;jettySize=auto;html=1;" parent="1" source="r4h9uiGMZSQ4bL8BECDt-116" target="r4h9uiGMZSQ4bL8BECDt-117" edge="1">
          <mxGeometry relative="1" as="geometry" />
        </mxCell>
        <mxCell id="r4h9uiGMZSQ4bL8BECDt-295" value="bridge-start" style="edgeLabel;html=1;align=center;verticalAlign=middle;resizable=0;points=[];" parent="r4h9uiGMZSQ4bL8BECDt-124" vertex="1" connectable="0">
          <mxGeometry x="-0.1182" y="-2" relative="1" as="geometry">
            <mxPoint x="45" as="offset" />
          </mxGeometry>
        </mxCell>
        <mxCell id="r4h9uiGMZSQ4bL8BECDt-116" value="&lt;div&gt;service&lt;/div&gt;forwarding" style="rounded=1;whiteSpace=wrap;html=1;" parent="1" vertex="1">
          <mxGeometry x="-782.5" y="-1337.5" width="120" height="40" as="geometry" />
        </mxCell>
        <mxCell id="r4h9uiGMZSQ4bL8BECDt-117" value="service_&lt;span style=&quot;background-color: initial;&quot;&gt;bridge_bcm93390.sh&lt;/span&gt;&lt;div style=&quot;text-align: left;&quot;&gt;&lt;span style=&quot;background-color: initial;&quot;&gt;&lt;br&gt;&lt;/span&gt;&lt;/div&gt;&lt;div style=&quot;text-align: left;&quot;&gt;&lt;span style=&quot;background-color: initial;&quot;&gt;&lt;b&gt;Create and configure virtual lan0 management interface&lt;/b&gt;&lt;/span&gt;&lt;br&gt;&lt;/div&gt;&lt;div style=&quot;text-align: left;&quot;&gt;lan0 llan0 veth pair&lt;/div&gt;&lt;div style=&quot;text-align: left;&quot;&gt;disable ipv6&lt;/div&gt;&lt;div style=&quot;text-align: left;&quot;&gt;configure promisc / mac / netmask&lt;/div&gt;&lt;div style=&quot;text-align: left;&quot;&gt;&lt;span style=&quot;background-color: initial;&quot;&gt;dont allow lan0 to send traffic to erouter0 (ebtables Forward)&lt;/span&gt;&lt;br&gt;&lt;/div&gt;&lt;div style=&quot;text-align: left;&quot;&gt;&lt;span style=&quot;background-color: initial;&quot;&gt;redirect traffic destined to lan0 IP to lan0 MAC (ebtables Prerouting)&lt;/span&gt;&lt;br&gt;&lt;/div&gt;&lt;div style=&quot;text-align: left;&quot;&gt;&lt;span style=&quot;background-color: initial;&quot;&gt;send responses from brlan0 IP to a separate bridge mode route table&lt;/span&gt;&lt;br&gt;&lt;/div&gt;&lt;div style=&quot;text-align: left;&quot;&gt;&lt;span style=&quot;background-color: initial;&quot;&gt;&lt;br&gt;&lt;/span&gt;&lt;/div&gt;&lt;div style=&quot;text-align: left;&quot;&gt;&lt;span style=&quot;background-color: initial;&quot;&gt;&lt;b&gt;Create brlan0 and&amp;nbsp;&lt;/b&gt;&lt;/span&gt;&lt;span style=&quot;background-color: initial;&quot;&gt;&lt;b&gt;add: lan interfaces, lan0, erouter0&lt;/b&gt;&lt;/span&gt;&lt;/div&gt;&lt;div style=&quot;text-align: left;&quot;&gt;&lt;span style=&quot;background-color: initial;&quot;&gt;&lt;br&gt;&lt;/span&gt;&lt;/div&gt;&lt;div style=&quot;text-align: left;&quot;&gt;&lt;span style=&quot;background-color: initial;&quot;&gt;&lt;b&gt;Filter local traffic&lt;/b&gt;&lt;/span&gt;&lt;/div&gt;&lt;div style=&quot;text-align: left;&quot;&gt;on brlan0 and erouter0 (ebtables Output)&lt;/div&gt;" style="rounded=1;whiteSpace=wrap;html=1;verticalAlign=top;" parent="1" vertex="1">
          <mxGeometry x="-925" y="-1262.5" width="405" height="230" as="geometry" />
        </mxCell>
        <mxCell id="r4h9uiGMZSQ4bL8BECDt-122" value="&lt;font color=&quot;#cdb665&quot; style=&quot;font-size: 18px;&quot;&gt;WAN&lt;/font&gt;&lt;div style=&quot;font-size: 18px;&quot;&gt;&lt;font color=&quot;#cdb665&quot;&gt;&lt;br&gt;&lt;/font&gt;&lt;/div&gt;&lt;div style=&quot;font-size: 18px;&quot;&gt;&lt;font color=&quot;#cdb665&quot;&gt;10.107.200.1 / 24&lt;/font&gt;&lt;/div&gt;" style="rounded=0;whiteSpace=wrap;html=1;strokeWidth=3;fillColor=#fff2cc;strokeColor=#d6b656;" parent="1" vertex="1">
          <mxGeometry x="225" y="-2482.5" width="180" height="80" as="geometry" />
        </mxCell>
        <mxCell id="r4h9uiGMZSQ4bL8BECDt-126" value="MV2PLUS" style="text;html=1;align=center;verticalAlign=middle;resizable=0;points=[];autosize=1;strokeColor=none;fillColor=none;fontStyle=1;fontSize=28;" parent="1" vertex="1">
          <mxGeometry x="-1040" y="-3330" width="150" height="50" as="geometry" />
        </mxCell>
        <mxCell id="r4h9uiGMZSQ4bL8BECDt-127" value="&lt;font color=&quot;#9673a6&quot;&gt;webui&lt;/font&gt;" style="rounded=0;whiteSpace=wrap;html=1;fillColor=#e1d5e7;strokeColor=#9673a6;fontStyle=0;strokeWidth=2;fontSize=16;shape=parallelogram;perimeter=parallelogramPerimeter;fixedSize=1;" parent="1" vertex="1">
          <mxGeometry x="-945" y="-2125.75" width="95" height="40" as="geometry" />
        </mxCell>
        <mxCell id="r4h9uiGMZSQ4bL8BECDt-128" value="" style="rounded=1;whiteSpace=wrap;html=1;fillColor=#f5f5f5;fontColor=#333333;strokeColor=#666666;strokeWidth=2;verticalAlign=top;fontSize=22;" parent="1" vertex="1">
          <mxGeometry x="815" y="-1815" width="880" height="555" as="geometry" />
        </mxCell>
        <mxCell id="r4h9uiGMZSQ4bL8BECDt-129" value="&lt;b style=&quot;font-size: 22px;&quot;&gt;PSEUDO BRIDGE MODE&lt;/b&gt;" style="rounded=1;whiteSpace=wrap;html=1;fillColor=#f5f5f5;fontColor=#333333;strokeColor=#666666;strokeWidth=2;verticalAlign=top;fontSize=22;" parent="1" vertex="1">
          <mxGeometry x="817.5" y="-2880" width="880" height="480" as="geometry" />
        </mxCell>
        <mxCell id="r4h9uiGMZSQ4bL8BECDt-130" value="&lt;div style=&quot;font-size: 20px;&quot;&gt;&lt;font color=&quot;#82b366&quot; style=&quot;font-size: 20px;&quot;&gt;&lt;span style=&quot;font-size: 20px;&quot;&gt;&lt;b style=&quot;font-size: 20px;&quot;&gt;brlan0&lt;/b&gt;&lt;/span&gt;&lt;/font&gt;&lt;/div&gt;" style="rounded=1;whiteSpace=wrap;html=1;fillColor=#d5e8d4;strokeColor=#82b366;verticalAlign=top;strokeWidth=4;fontSize=20;" parent="1" vertex="1">
          <mxGeometry x="897.5" y="-2820" width="540" height="290" as="geometry" />
        </mxCell>
        <mxCell id="r4h9uiGMZSQ4bL8BECDt-131" value="&lt;b style=&quot;font-size: 22px;&quot;&gt;ROUTER MODE&lt;/b&gt;" style="rounded=1;whiteSpace=wrap;html=1;fillColor=#f5f5f5;fontColor=#333333;strokeColor=#666666;strokeWidth=2;verticalAlign=top;fontSize=22;" parent="1" vertex="1">
          <mxGeometry x="815" y="-3250" width="880" height="370" as="geometry" />
        </mxCell>
        <mxCell id="r4h9uiGMZSQ4bL8BECDt-134" value="" style="edgeStyle=orthogonalEdgeStyle;rounded=0;orthogonalLoop=1;jettySize=auto;html=1;endArrow=none;fillColor=#d5e8d4;strokeColor=#82b366;" parent="1" source="r4h9uiGMZSQ4bL8BECDt-135" target="r4h9uiGMZSQ4bL8BECDt-169" edge="1">
          <mxGeometry relative="1" as="geometry" />
        </mxCell>
        <mxCell id="r4h9uiGMZSQ4bL8BECDt-135" value="&lt;div style=&quot;font-size: 20px;&quot;&gt;&lt;font color=&quot;#82b366&quot; style=&quot;font-size: 20px;&quot;&gt;&lt;span style=&quot;font-size: 20px;&quot;&gt;&lt;b style=&quot;font-size: 20px;&quot;&gt;brlan0&amp;nbsp;&lt;/b&gt;&lt;/span&gt;&lt;/font&gt;&lt;span style=&quot;color: rgb(130, 179, 102); background-color: initial;&quot;&gt;192.168.0.1 / 24&lt;/span&gt;&lt;/div&gt;" style="rounded=1;whiteSpace=wrap;html=1;fillColor=#d5e8d4;strokeColor=#82b366;verticalAlign=top;strokeWidth=4;fontSize=20;" parent="1" vertex="1">
          <mxGeometry x="895" y="-3220" width="290" height="310" as="geometry" />
        </mxCell>
        <mxCell id="r4h9uiGMZSQ4bL8BECDt-136" value="" style="edgeStyle=orthogonalEdgeStyle;rounded=0;orthogonalLoop=1;jettySize=auto;html=1;endArrow=none;fillColor=#e1d5e7;strokeColor=#9673a6;" parent="1" source="r4h9uiGMZSQ4bL8BECDt-137" target="r4h9uiGMZSQ4bL8BECDt-138" edge="1">
          <mxGeometry relative="1" as="geometry">
            <mxPoint x="1732.5" y="-2250" as="targetPoint" />
          </mxGeometry>
        </mxCell>
        <mxCell id="r4h9uiGMZSQ4bL8BECDt-137" value="&lt;font color=&quot;#9673a6&quot; style=&quot;font-size: 16px;&quot;&gt;llan0&lt;/font&gt;" style="rounded=0;whiteSpace=wrap;html=1;fillColor=#e1d5e7;strokeColor=#9673a6;fontStyle=1;strokeWidth=2;fontSize=16;" parent="1" vertex="1">
          <mxGeometry x="1057.5" y="-2615" width="60" height="50" as="geometry" />
        </mxCell>
        <mxCell id="r4h9uiGMZSQ4bL8BECDt-138" value="&lt;font color=&quot;#9673a6&quot; style=&quot;font-size: 16px;&quot;&gt;lan0&lt;/font&gt;&lt;div&gt;&lt;font color=&quot;#9673a6&quot;&gt;&lt;br&gt;&lt;/font&gt;&lt;div&gt;&lt;font color=&quot;#9673a6&quot; style=&quot;font-size: 16px;&quot;&gt;192.168.100.1 / 24&lt;/font&gt;&lt;/div&gt;&lt;/div&gt;" style="rounded=0;whiteSpace=wrap;html=1;fillColor=#e1d5e7;strokeColor=#9673a6;fontStyle=1;strokeWidth=2;fontSize=16;" parent="1" vertex="1">
          <mxGeometry x="1017.5" y="-2510" width="140" height="90" as="geometry" />
        </mxCell>
        <mxCell id="r4h9uiGMZSQ4bL8BECDt-139" value="" style="edgeStyle=orthogonalEdgeStyle;rounded=0;orthogonalLoop=1;jettySize=auto;html=1;endArrow=none;fillColor=#fff2cc;strokeColor=#d6b656;" parent="1" source="r4h9uiGMZSQ4bL8BECDt-140" target="r4h9uiGMZSQ4bL8BECDt-133" edge="1">
          <mxGeometry relative="1" as="geometry">
            <mxPoint x="1615" y="-3060" as="targetPoint" />
          </mxGeometry>
        </mxCell>
        <mxCell id="r4h9uiGMZSQ4bL8BECDt-140" value="WAN" style="whiteSpace=wrap;html=1;aspect=fixed;strokeWidth=3;" parent="1" vertex="1">
          <mxGeometry x="1615" y="-3110" width="80" height="80" as="geometry" />
        </mxCell>
        <mxCell id="r4h9uiGMZSQ4bL8BECDt-141" value="" style="edgeStyle=orthogonalEdgeStyle;rounded=0;orthogonalLoop=1;jettySize=auto;html=1;endArrow=none;fillColor=#dae8fc;strokeColor=#6c8ebf;" parent="1" source="r4h9uiGMZSQ4bL8BECDt-142" target="r4h9uiGMZSQ4bL8BECDt-149" edge="1">
          <mxGeometry relative="1" as="geometry" />
        </mxCell>
        <mxCell id="r4h9uiGMZSQ4bL8BECDt-142" value="&lt;span style=&quot;color: rgb(130, 179, 102);&quot;&gt;eth1&lt;/span&gt;" style="rounded=0;whiteSpace=wrap;html=1;fillColor=#d5e8d4;strokeColor=#82b366;fontStyle=1;strokeWidth=1;fontSize=16;" parent="1" vertex="1">
          <mxGeometry x="925" y="-3157.5" width="90" height="50" as="geometry" />
        </mxCell>
        <mxCell id="r4h9uiGMZSQ4bL8BECDt-143" value="" style="edgeStyle=orthogonalEdgeStyle;rounded=0;orthogonalLoop=1;jettySize=auto;html=1;endArrow=none;fillColor=#dae8fc;strokeColor=#6c8ebf;" parent="1" source="r4h9uiGMZSQ4bL8BECDt-144" target="r4h9uiGMZSQ4bL8BECDt-150" edge="1">
          <mxGeometry relative="1" as="geometry" />
        </mxCell>
        <mxCell id="r4h9uiGMZSQ4bL8BECDt-144" value="&lt;span style=&quot;color: rgb(130, 179, 102);&quot;&gt;eth2&lt;/span&gt;" style="rounded=0;whiteSpace=wrap;html=1;fillColor=#d5e8d4;strokeColor=#82b366;fontStyle=1;strokeWidth=1;fontSize=16;" parent="1" vertex="1">
          <mxGeometry x="925" y="-3102.5" width="90" height="50" as="geometry" />
        </mxCell>
        <mxCell id="r4h9uiGMZSQ4bL8BECDt-145" value="" style="edgeStyle=orthogonalEdgeStyle;rounded=0;orthogonalLoop=1;jettySize=auto;html=1;endArrow=none;fillColor=#dae8fc;strokeColor=#6c8ebf;" parent="1" source="r4h9uiGMZSQ4bL8BECDt-146" target="r4h9uiGMZSQ4bL8BECDt-151" edge="1">
          <mxGeometry relative="1" as="geometry" />
        </mxCell>
        <mxCell id="r4h9uiGMZSQ4bL8BECDt-146" value="&lt;span style=&quot;color: rgb(130, 179, 102);&quot;&gt;eth3&lt;/span&gt;" style="rounded=0;whiteSpace=wrap;html=1;fillColor=#d5e8d4;strokeColor=#82b366;fontStyle=1;strokeWidth=1;fontSize=16;" parent="1" vertex="1">
          <mxGeometry x="925" y="-3047.5" width="90" height="50" as="geometry" />
        </mxCell>
        <mxCell id="r4h9uiGMZSQ4bL8BECDt-147" value="" style="edgeStyle=orthogonalEdgeStyle;rounded=0;orthogonalLoop=1;jettySize=auto;html=1;endArrow=none;fillColor=#dae8fc;strokeColor=#6c8ebf;" parent="1" source="r4h9uiGMZSQ4bL8BECDt-148" target="r4h9uiGMZSQ4bL8BECDt-152" edge="1">
          <mxGeometry relative="1" as="geometry" />
        </mxCell>
        <mxCell id="r4h9uiGMZSQ4bL8BECDt-148" value="&lt;span style=&quot;color: rgb(130, 179, 102);&quot;&gt;eth4&lt;/span&gt;" style="rounded=0;whiteSpace=wrap;html=1;fillColor=#d5e8d4;strokeColor=#82b366;fontStyle=1;strokeWidth=1;fontSize=16;" parent="1" vertex="1">
          <mxGeometry x="925" y="-2992.5" width="90" height="50" as="geometry" />
        </mxCell>
        <mxCell id="r4h9uiGMZSQ4bL8BECDt-149" value="LAN" style="whiteSpace=wrap;html=1;aspect=fixed;strokeWidth=3;" parent="1" vertex="1">
          <mxGeometry x="815" y="-3157.5" width="50" height="50" as="geometry" />
        </mxCell>
        <mxCell id="r4h9uiGMZSQ4bL8BECDt-150" value="LAN" style="whiteSpace=wrap;html=1;aspect=fixed;strokeWidth=3;" parent="1" vertex="1">
          <mxGeometry x="815" y="-3102.5" width="50" height="50" as="geometry" />
        </mxCell>
        <mxCell id="r4h9uiGMZSQ4bL8BECDt-151" value="LAN" style="whiteSpace=wrap;html=1;aspect=fixed;strokeWidth=3;" parent="1" vertex="1">
          <mxGeometry x="815" y="-3047.5" width="50" height="50" as="geometry" />
        </mxCell>
        <mxCell id="r4h9uiGMZSQ4bL8BECDt-152" value="LAN" style="whiteSpace=wrap;html=1;aspect=fixed;strokeWidth=3;" parent="1" vertex="1">
          <mxGeometry x="815" y="-2992.5" width="50" height="50" as="geometry" />
        </mxCell>
        <mxCell id="r4h9uiGMZSQ4bL8BECDt-153" value="&lt;font color=&quot;#d6b656&quot; style=&quot;font-size: 16px;&quot;&gt;erouter0_pipe&lt;br&gt;&lt;/font&gt;" style="rounded=0;whiteSpace=wrap;html=1;fillColor=#fff2cc;strokeColor=#d6b656;fontStyle=1;strokeWidth=2;fontSize=16;" parent="1" vertex="1">
          <mxGeometry x="1212.5" y="-2690" width="145" height="50" as="geometry" />
        </mxCell>
        <mxCell id="r4h9uiGMZSQ4bL8BECDt-154" value="" style="edgeStyle=orthogonalEdgeStyle;rounded=0;orthogonalLoop=1;jettySize=auto;html=1;endArrow=none;fillColor=#dae8fc;strokeColor=#6c8ebf;" parent="1" source="r4h9uiGMZSQ4bL8BECDt-155" target="r4h9uiGMZSQ4bL8BECDt-164" edge="1">
          <mxGeometry relative="1" as="geometry" />
        </mxCell>
        <mxCell id="r4h9uiGMZSQ4bL8BECDt-155" value="&lt;span style=&quot;color: rgb(130, 179, 102);&quot;&gt;eth1&lt;/span&gt;" style="rounded=0;whiteSpace=wrap;html=1;fillColor=#d5e8d4;strokeColor=#82b366;fontStyle=1;strokeWidth=1;fontSize=16;" parent="1" vertex="1">
          <mxGeometry x="927.5" y="-2780" width="90" height="50" as="geometry" />
        </mxCell>
        <mxCell id="r4h9uiGMZSQ4bL8BECDt-156" value="" style="edgeStyle=orthogonalEdgeStyle;rounded=0;orthogonalLoop=1;jettySize=auto;html=1;endArrow=none;fillColor=#dae8fc;strokeColor=#6c8ebf;" parent="1" source="r4h9uiGMZSQ4bL8BECDt-157" target="r4h9uiGMZSQ4bL8BECDt-165" edge="1">
          <mxGeometry relative="1" as="geometry" />
        </mxCell>
        <mxCell id="r4h9uiGMZSQ4bL8BECDt-157" value="&lt;span style=&quot;color: rgb(130, 179, 102);&quot;&gt;eth2&lt;/span&gt;" style="rounded=0;whiteSpace=wrap;html=1;fillColor=#d5e8d4;strokeColor=#82b366;fontStyle=1;strokeWidth=1;fontSize=16;" parent="1" vertex="1">
          <mxGeometry x="927.5" y="-2725" width="90" height="50" as="geometry" />
        </mxCell>
        <mxCell id="r4h9uiGMZSQ4bL8BECDt-158" value="" style="edgeStyle=orthogonalEdgeStyle;rounded=0;orthogonalLoop=1;jettySize=auto;html=1;endArrow=none;fillColor=#dae8fc;strokeColor=#6c8ebf;" parent="1" source="r4h9uiGMZSQ4bL8BECDt-159" target="r4h9uiGMZSQ4bL8BECDt-166" edge="1">
          <mxGeometry relative="1" as="geometry" />
        </mxCell>
        <mxCell id="r4h9uiGMZSQ4bL8BECDt-159" value="&lt;span style=&quot;color: rgb(130, 179, 102);&quot;&gt;eth3&lt;/span&gt;" style="rounded=0;whiteSpace=wrap;html=1;fillColor=#d5e8d4;strokeColor=#82b366;fontStyle=1;strokeWidth=1;fontSize=16;" parent="1" vertex="1">
          <mxGeometry x="927.5" y="-2670" width="90" height="50" as="geometry" />
        </mxCell>
        <mxCell id="r4h9uiGMZSQ4bL8BECDt-160" value="" style="edgeStyle=orthogonalEdgeStyle;rounded=0;orthogonalLoop=1;jettySize=auto;html=1;endArrow=none;fillColor=#dae8fc;strokeColor=#6c8ebf;" parent="1" source="r4h9uiGMZSQ4bL8BECDt-161" target="r4h9uiGMZSQ4bL8BECDt-167" edge="1">
          <mxGeometry relative="1" as="geometry" />
        </mxCell>
        <mxCell id="r4h9uiGMZSQ4bL8BECDt-161" value="&lt;span style=&quot;color: rgb(130, 179, 102);&quot;&gt;eth4&lt;/span&gt;" style="rounded=0;whiteSpace=wrap;html=1;fillColor=#d5e8d4;strokeColor=#82b366;fontStyle=1;strokeWidth=1;fontSize=16;" parent="1" vertex="1">
          <mxGeometry x="927.5" y="-2615" width="90" height="50" as="geometry" />
        </mxCell>
        <mxCell id="r4h9uiGMZSQ4bL8BECDt-162" value="" style="edgeStyle=orthogonalEdgeStyle;rounded=0;orthogonalLoop=1;jettySize=auto;html=1;endArrow=none;fillColor=#fff2cc;strokeColor=#d6b656;" parent="1" source="r4h9uiGMZSQ4bL8BECDt-185" target="r4h9uiGMZSQ4bL8BECDt-153" edge="1">
          <mxGeometry relative="1" as="geometry">
            <Array as="points">
              <mxPoint x="1382.5" y="-2665" />
            </Array>
          </mxGeometry>
        </mxCell>
        <mxCell id="r4h9uiGMZSQ4bL8BECDt-163" value="WAN" style="whiteSpace=wrap;html=1;aspect=fixed;strokeWidth=3;" parent="1" vertex="1">
          <mxGeometry x="1617.5" y="-2730" width="80" height="80" as="geometry" />
        </mxCell>
        <mxCell id="r4h9uiGMZSQ4bL8BECDt-164" value="LAN" style="whiteSpace=wrap;html=1;aspect=fixed;strokeWidth=3;" parent="1" vertex="1">
          <mxGeometry x="817.5" y="-2780" width="50" height="50" as="geometry" />
        </mxCell>
        <mxCell id="r4h9uiGMZSQ4bL8BECDt-165" value="LAN" style="whiteSpace=wrap;html=1;aspect=fixed;strokeWidth=3;" parent="1" vertex="1">
          <mxGeometry x="817.5" y="-2725" width="50" height="50" as="geometry" />
        </mxCell>
        <mxCell id="r4h9uiGMZSQ4bL8BECDt-166" value="LAN" style="whiteSpace=wrap;html=1;aspect=fixed;strokeWidth=3;" parent="1" vertex="1">
          <mxGeometry x="817.5" y="-2670" width="50" height="50" as="geometry" />
        </mxCell>
        <mxCell id="r4h9uiGMZSQ4bL8BECDt-167" value="LAN" style="whiteSpace=wrap;html=1;aspect=fixed;strokeWidth=3;" parent="1" vertex="1">
          <mxGeometry x="817.5" y="-2615" width="50" height="50" as="geometry" />
        </mxCell>
        <mxCell id="r4h9uiGMZSQ4bL8BECDt-168" value="" style="edgeStyle=orthogonalEdgeStyle;rounded=0;orthogonalLoop=1;jettySize=auto;html=1;endArrow=none;fillColor=#fff2cc;strokeColor=#d6b656;" parent="1" source="r4h9uiGMZSQ4bL8BECDt-169" target="r4h9uiGMZSQ4bL8BECDt-180" edge="1">
          <mxGeometry relative="1" as="geometry">
            <mxPoint x="1435" y="-3065" as="targetPoint" />
          </mxGeometry>
        </mxCell>
        <mxCell id="r4h9uiGMZSQ4bL8BECDt-169" value="&lt;b&gt;NAT&lt;/b&gt;&lt;div&gt;&lt;b&gt;DNS&lt;/b&gt;&lt;/div&gt;&lt;div&gt;&lt;b&gt;DHCP&lt;/b&gt;&lt;/div&gt;" style="shape=parallelogram;perimeter=parallelogramPerimeter;whiteSpace=wrap;html=1;fixedSize=1;strokeWidth=2;" parent="1" vertex="1">
          <mxGeometry x="1237.5" y="-3160" width="102.5" height="80" as="geometry" />
        </mxCell>
        <mxCell id="r4h9uiGMZSQ4bL8BECDt-175" value="" style="edgeStyle=orthogonalEdgeStyle;rounded=0;orthogonalLoop=1;jettySize=auto;html=1;" parent="1" source="r4h9uiGMZSQ4bL8BECDt-193" target="r4h9uiGMZSQ4bL8BECDt-177" edge="1">
          <mxGeometry relative="1" as="geometry">
            <Array as="points">
              <mxPoint x="1388" y="-1655" />
            </Array>
          </mxGeometry>
        </mxCell>
        <mxCell id="r4h9uiGMZSQ4bL8BECDt-199" value="3" style="edgeLabel;html=1;align=center;verticalAlign=middle;resizable=0;points=[];" parent="r4h9uiGMZSQ4bL8BECDt-175" vertex="1" connectable="0">
          <mxGeometry x="-0.1303" y="-1" relative="1" as="geometry">
            <mxPoint x="-19" y="-11" as="offset" />
          </mxGeometry>
        </mxCell>
        <mxCell id="r4h9uiGMZSQ4bL8BECDt-194" value="" style="edgeStyle=orthogonalEdgeStyle;rounded=0;orthogonalLoop=1;jettySize=auto;html=1;" parent="1" source="r4h9uiGMZSQ4bL8BECDt-176" target="r4h9uiGMZSQ4bL8BECDt-193" edge="1">
          <mxGeometry relative="1" as="geometry" />
        </mxCell>
        <mxCell id="r4h9uiGMZSQ4bL8BECDt-176" value="utopia_init.sh" style="rounded=1;whiteSpace=wrap;html=1;" parent="1" vertex="1">
          <mxGeometry x="962.5" y="-1795" width="120" height="60" as="geometry" />
        </mxCell>
        <mxCell id="r4h9uiGMZSQ4bL8BECDt-202" value="" style="edgeStyle=orthogonalEdgeStyle;rounded=0;orthogonalLoop=1;jettySize=auto;html=1;" parent="1" source="r4h9uiGMZSQ4bL8BECDt-177" target="r4h9uiGMZSQ4bL8BECDt-201" edge="1">
          <mxGeometry relative="1" as="geometry" />
        </mxCell>
        <mxCell id="r4h9uiGMZSQ4bL8BECDt-177" value="init_bridge_mode.sh&lt;div&gt;&lt;br&gt;&lt;/div&gt;&lt;div&gt;create brlan0 add lan interfaces&lt;/div&gt;" style="rounded=1;whiteSpace=wrap;html=1;verticalAlign=top;" parent="1" vertex="1">
          <mxGeometry x="1298.75" y="-1620" width="177.5" height="60" as="geometry" />
        </mxCell>
        <mxCell id="r4h9uiGMZSQ4bL8BECDt-178" value="MV3 - MULTI VLAN&amp;nbsp; (9)" style="text;html=1;align=center;verticalAlign=middle;resizable=0;points=[];autosize=1;strokeColor=none;fillColor=none;fontStyle=1;fontSize=28;" parent="1" vertex="1">
          <mxGeometry x="817.5" y="-3330" width="320" height="50" as="geometry" />
        </mxCell>
        <mxCell id="r4h9uiGMZSQ4bL8BECDt-179" value="&lt;font color=&quot;#9673a6&quot;&gt;webui&lt;/font&gt;" style="rounded=0;whiteSpace=wrap;html=1;fillColor=#e1d5e7;strokeColor=#9673a6;fontStyle=1;strokeWidth=2;fontSize=16;shape=parallelogram;perimeter=parallelogramPerimeter;fixedSize=1;" parent="1" vertex="1">
          <mxGeometry x="912.5" y="-2460" width="95" height="40" as="geometry" />
        </mxCell>
        <mxCell id="r4h9uiGMZSQ4bL8BECDt-180" value="&lt;font color=&quot;#d6b656&quot;&gt;erouter0&lt;/font&gt;&lt;div&gt;&lt;font color=&quot;#d6b656&quot;&gt;.1081&lt;/font&gt;&lt;/div&gt;" style="rounded=0;whiteSpace=wrap;html=1;fillColor=#fff2cc;strokeColor=#d6b656;fontStyle=1;strokeWidth=2;fontSize=16;verticalAlign=top;" parent="1" vertex="1">
          <mxGeometry x="1405" y="-3220" width="125" height="100" as="geometry" />
        </mxCell>
        <mxCell id="r4h9uiGMZSQ4bL8BECDt-181" value="&lt;font color=&quot;#d6b656&quot;&gt;mg0&lt;/font&gt;&lt;div&gt;&lt;font color=&quot;#d6b656&quot;&gt;.881&lt;/font&gt;&lt;/div&gt;" style="rounded=0;whiteSpace=wrap;html=1;fillColor=#fff2cc;strokeColor=#d6b656;fontStyle=1;strokeWidth=2;fontSize=16;verticalAlign=top;" parent="1" vertex="1">
          <mxGeometry x="1405" y="-3120" width="125" height="100" as="geometry" />
        </mxCell>
        <mxCell id="r4h9uiGMZSQ4bL8BECDt-182" value="&lt;font color=&quot;#d6b656&quot;&gt;voip0&lt;/font&gt;&lt;div&gt;&lt;font color=&quot;#d6b656&quot;&gt;.981&lt;/font&gt;&lt;/div&gt;" style="rounded=0;whiteSpace=wrap;html=1;fillColor=#fff2cc;strokeColor=#d6b656;fontStyle=1;strokeWidth=2;fontSize=16;verticalAlign=top;" parent="1" vertex="1">
          <mxGeometry x="1405" y="-3020" width="125" height="100" as="geometry" />
        </mxCell>
        <mxCell id="r4h9uiGMZSQ4bL8BECDt-184" value="" style="edgeStyle=orthogonalEdgeStyle;rounded=0;orthogonalLoop=1;jettySize=auto;html=1;endArrow=none;fillColor=#fff2cc;strokeColor=#d6b656;" parent="1" source="r4h9uiGMZSQ4bL8BECDt-163" target="r4h9uiGMZSQ4bL8BECDt-183" edge="1">
          <mxGeometry relative="1" as="geometry">
            <mxPoint x="1627.5" y="-2690" as="targetPoint" />
            <mxPoint x="1627.5" y="-2690" as="sourcePoint" />
          </mxGeometry>
        </mxCell>
        <mxCell id="r4h9uiGMZSQ4bL8BECDt-185" value="&lt;font color=&quot;#d6b656&quot;&gt;erouter0&lt;/font&gt;" style="rounded=0;whiteSpace=wrap;html=1;fillColor=#fff2cc;strokeColor=#d6b656;fontStyle=1;strokeWidth=2;fontSize=16;" parent="1" vertex="1">
          <mxGeometry x="1337.5" y="-2510" width="90" height="90" as="geometry" />
        </mxCell>
        <mxCell id="r4h9uiGMZSQ4bL8BECDt-186" value="&lt;font color=&quot;#d6b656&quot;&gt;mg0&lt;/font&gt;" style="rounded=0;whiteSpace=wrap;html=1;fillColor=#fff2cc;strokeColor=#d6b656;fontStyle=1;strokeWidth=2;fontSize=16;verticalAlign=top;" parent="1" vertex="1">
          <mxGeometry x="1467.5" y="-2720" width="70" height="60" as="geometry" />
        </mxCell>
        <mxCell id="r4h9uiGMZSQ4bL8BECDt-187" value="&lt;font color=&quot;#d6b656&quot;&gt;voip0&lt;/font&gt;" style="rounded=0;whiteSpace=wrap;html=1;fillColor=#fff2cc;strokeColor=#d6b656;fontStyle=1;strokeWidth=2;fontSize=16;verticalAlign=top;" parent="1" vertex="1">
          <mxGeometry x="1467.5" y="-2660" width="70" height="60" as="geometry" />
        </mxCell>
        <mxCell id="r4h9uiGMZSQ4bL8BECDt-188" value="&lt;font color=&quot;#d6b656&quot; style=&quot;font-size: 16px;&quot;&gt;wan_upper&lt;br&gt;&lt;/font&gt;" style="rounded=0;whiteSpace=wrap;html=1;fillColor=#fff2cc;strokeColor=#d6b656;fontStyle=1;strokeWidth=2;fontSize=16;" parent="1" vertex="1">
          <mxGeometry x="1212.5" y="-2775" width="145" height="50" as="geometry" />
        </mxCell>
        <mxCell id="r4h9uiGMZSQ4bL8BECDt-189" value="&lt;font color=&quot;#000000&quot;&gt;eth0&lt;/font&gt;" style="rounded=0;whiteSpace=wrap;html=1;fillColor=#f5f5f5;strokeColor=#666666;fontStyle=1;strokeWidth=2;fontSize=16;fontColor=#333333;" parent="1" vertex="1">
          <mxGeometry x="1357.5" y="-2775" width="60" height="50" as="geometry" />
        </mxCell>
        <mxCell id="r4h9uiGMZSQ4bL8BECDt-190" value="" style="edgeStyle=orthogonalEdgeStyle;rounded=0;orthogonalLoop=1;jettySize=auto;html=1;endArrow=none;fillColor=#fff2cc;strokeColor=#d6b656;" parent="1" source="r4h9uiGMZSQ4bL8BECDt-163" target="r4h9uiGMZSQ4bL8BECDt-189" edge="1">
          <mxGeometry relative="1" as="geometry">
            <mxPoint x="1392.5" y="-2500" as="sourcePoint" />
            <mxPoint x="1367.5" y="-2655" as="targetPoint" />
            <Array as="points">
              <mxPoint x="1657.5" y="-2750" />
            </Array>
          </mxGeometry>
        </mxCell>
        <mxCell id="r4h9uiGMZSQ4bL8BECDt-197" value="" style="edgeStyle=orthogonalEdgeStyle;rounded=0;orthogonalLoop=1;jettySize=auto;html=1;" parent="1" source="r4h9uiGMZSQ4bL8BECDt-193" target="r4h9uiGMZSQ4bL8BECDt-195" edge="1">
          <mxGeometry relative="1" as="geometry">
            <mxPoint x="902.5" y="-1655" as="targetPoint" />
            <Array as="points">
              <mxPoint x="902.5" y="-1655" />
            </Array>
          </mxGeometry>
        </mxCell>
        <mxCell id="r4h9uiGMZSQ4bL8BECDt-198" value="2" style="edgeLabel;html=1;align=center;verticalAlign=middle;resizable=0;points=[];" parent="r4h9uiGMZSQ4bL8BECDt-197" vertex="1" connectable="0">
          <mxGeometry x="0.0916" relative="1" as="geometry">
            <mxPoint x="30" y="-10" as="offset" />
          </mxGeometry>
        </mxCell>
        <mxCell id="r4h9uiGMZSQ4bL8BECDt-193" value="bridge_&lt;div&gt;mode&lt;/div&gt;" style="rhombus;whiteSpace=wrap;html=1;" parent="1" vertex="1">
          <mxGeometry x="982.5" y="-1695" width="80" height="80" as="geometry" />
        </mxCell>
        <mxCell id="r4h9uiGMZSQ4bL8BECDt-195" value="service_bridge.sh&lt;div&gt;&lt;br&gt;&lt;/div&gt;&lt;div&gt;&lt;div style=&quot;text-align: left;&quot;&gt;&lt;span style=&quot;background-color: initial;&quot;&gt;&lt;b&gt;Create and configure virtual lan0 management interface&lt;/b&gt;&lt;/span&gt;&lt;br&gt;&lt;/div&gt;&lt;div style=&quot;text-align: left;&quot;&gt;lan0 llan0 veth pair&lt;/div&gt;&lt;div style=&quot;text-align: left;&quot;&gt;disable ipv6&lt;/div&gt;&lt;div style=&quot;text-align: left;&quot;&gt;configure promisc / mac / netmask&lt;/div&gt;&lt;div style=&quot;text-align: left;&quot;&gt;&lt;span style=&quot;background-color: initial;&quot;&gt;dont allow lan0 to send traffic to erouter0 (ebtables Forward)&lt;/span&gt;&lt;br&gt;&lt;/div&gt;&lt;div style=&quot;text-align: left;&quot;&gt;&lt;span style=&quot;background-color: initial;&quot;&gt;redirect traffic destined to lan0 IP to lan0 MAC (ebtable Prerouting)&lt;/span&gt;&lt;br&gt;&lt;/div&gt;&lt;div style=&quot;text-align: left;&quot;&gt;&lt;span style=&quot;background-color: initial;&quot;&gt;send responses from brlan0 IP to a separate bridge mode route table&lt;/span&gt;&lt;br&gt;&lt;/div&gt;&lt;div style=&quot;text-align: left;&quot;&gt;&lt;span style=&quot;background-color: initial;&quot;&gt;&lt;br&gt;&lt;/span&gt;&lt;/div&gt;&lt;div style=&quot;text-align: left;&quot;&gt;&lt;span style=&quot;background-color: initial;&quot;&gt;&lt;b&gt;Create brlan0 and&amp;nbsp;&lt;/b&gt;&lt;/span&gt;&lt;span style=&quot;background-color: initial;&quot;&gt;&lt;b&gt;add: lan interfaces, lan0, erouter0&lt;/b&gt;&lt;/span&gt;&lt;/div&gt;&lt;div style=&quot;text-align: left;&quot;&gt;&lt;span style=&quot;background-color: initial;&quot;&gt;&lt;br&gt;&lt;/span&gt;&lt;/div&gt;&lt;div style=&quot;text-align: left;&quot;&gt;&lt;span style=&quot;background-color: initial;&quot;&gt;&lt;b&gt;Filter local traffic&lt;/b&gt;&lt;/span&gt;&lt;/div&gt;&lt;div style=&quot;text-align: left;&quot;&gt;on brlan0 and erouter0 (ebtable Output)&lt;/div&gt;&lt;/div&gt;" style="rounded=1;whiteSpace=wrap;html=1;horizontal=1;verticalAlign=top;" parent="1" vertex="1">
          <mxGeometry x="852.5" y="-1600" width="412.5" height="240" as="geometry" />
        </mxCell>
        <mxCell id="r4h9uiGMZSQ4bL8BECDt-200" value="&lt;div style=&quot;text-align: left; font-size: 16px;&quot;&gt;&lt;b style=&quot;color: rgb(51, 51, 51); font-family: &amp;quot;Courier New&amp;quot;; text-wrap: wrap; background-color: initial;&quot;&gt;Device.X_LGI-COM_Gateway.ErouterModeControl&lt;/b&gt;&lt;br&gt;&lt;/div&gt;&lt;div style=&quot;font-size: 16px;&quot;&gt;&lt;div style=&quot;font-size: 16px; color: rgb(51, 51, 51); font-family: &amp;quot;Courier New&amp;quot;; text-align: left; text-wrap: wrap;&quot;&gt;ipDisabled(1)&lt;/div&gt;&lt;div style=&quot;font-size: 16px; color: rgb(51, 51, 51); font-family: &amp;quot;Courier New&amp;quot;; text-align: left; text-wrap: wrap;&quot;&gt;ipv4Only(2)&lt;/div&gt;&lt;div style=&quot;font-size: 16px; color: rgb(51, 51, 51); font-family: &amp;quot;Courier New&amp;quot;; text-align: left; text-wrap: wrap;&quot;&gt;ipv6Only(3)&lt;/div&gt;&lt;div style=&quot;font-size: 16px; color: rgb(51, 51, 51); font-family: &amp;quot;Courier New&amp;quot;; text-align: left; text-wrap: wrap;&quot;&gt;ipv4AndIpv6(4)&lt;/div&gt;&lt;div style=&quot;font-size: 16px; color: rgb(51, 51, 51); font-family: &amp;quot;Courier New&amp;quot;; text-align: left; text-wrap: wrap;&quot;&gt;honoreRouterInitMode(5)&lt;/div&gt;&lt;div style=&quot;font-size: 16px; color: rgb(51, 51, 51); font-family: &amp;quot;Courier New&amp;quot;; text-align: left; text-wrap: wrap;&quot;&gt;&lt;br style=&quot;font-size: 16px;&quot;&gt;&lt;/div&gt;&lt;div style=&quot;font-size: 16px; color: rgb(51, 51, 51); font-family: &amp;quot;Courier New&amp;quot;; text-align: left; text-wrap: wrap;&quot;&gt;&lt;b style=&quot;font-size: 16px;&quot;&gt;Device.X_CISCO_COM_DeviceControl.DeviceMode&lt;/b&gt;&lt;/div&gt;&lt;div style=&quot;font-size: 16px; color: rgb(51, 51, 51); font-family: &amp;quot;Courier New&amp;quot;; text-align: left; text-wrap: wrap;&quot;&gt;ipDisabled(1)&lt;/div&gt;&lt;div style=&quot;font-size: 16px; color: rgb(51, 51, 51); font-family: &amp;quot;Courier New&amp;quot;; text-align: left; text-wrap: wrap;&quot;&gt;ipv4Only(2)&lt;/div&gt;&lt;div style=&quot;font-size: 16px; color: rgb(51, 51, 51); font-family: &amp;quot;Courier New&amp;quot;; text-align: left; text-wrap: wrap;&quot;&gt;ipv6Only(3)&lt;/div&gt;&lt;div style=&quot;font-size: 16px; color: rgb(51, 51, 51); font-family: &amp;quot;Courier New&amp;quot;; text-align: left; text-wrap: wrap;&quot;&gt;ipv4AndIpv6(4)&lt;/div&gt;&lt;div style=&quot;font-size: 16px; color: rgb(51, 51, 51); font-family: &amp;quot;Courier New&amp;quot;; text-align: left; text-wrap: wrap;&quot;&gt;&lt;br style=&quot;font-size: 16px;&quot;&gt;&lt;/div&gt;&lt;div style=&quot;font-size: 16px; color: rgb(51, 51, 51); font-family: &amp;quot;Courier New&amp;quot;; text-align: left; text-wrap: wrap;&quot;&gt;&lt;b style=&quot;font-size: 16px;&quot;&gt;Device.X_CISCO_COM_DeviceControl.LanManagementEntry.1.LanMode&lt;/b&gt;&lt;/div&gt;&lt;div style=&quot;font-size: 16px; color: rgb(51, 51, 51); font-family: &amp;quot;Courier New&amp;quot;; text-align: left; text-wrap: wrap;&quot;&gt;bridge-dhcp(1)&lt;/div&gt;&lt;div style=&quot;font-size: 16px; color: rgb(51, 51, 51); font-family: &amp;quot;Courier New&amp;quot;; text-align: left; text-wrap: wrap;&quot;&gt;bridge-static(2)&lt;/div&gt;&lt;div style=&quot;font-size: 16px; color: rgb(51, 51, 51); font-family: &amp;quot;Courier New&amp;quot;; text-align: left; text-wrap: wrap;&quot;&gt;router(3)&lt;/div&gt;&lt;div style=&quot;font-size: 16px; color: rgb(51, 51, 51); font-family: &amp;quot;Courier New&amp;quot;; text-align: left; text-wrap: wrap;&quot;&gt;full-bridge-static(4)&lt;/div&gt;&lt;div style=&quot;font-size: 16px; color: rgb(51, 51, 51); font-family: &amp;quot;Courier New&amp;quot;; text-align: left; text-wrap: wrap;&quot;&gt;&lt;br style=&quot;font-size: 16px;&quot;&gt;&lt;/div&gt;&lt;div style=&quot;font-size: 16px; color: rgb(51, 51, 51); font-family: &amp;quot;Courier New&amp;quot;; text-align: left; text-wrap: wrap;&quot;&gt;&lt;b style=&quot;font-size: 16px;&quot;&gt;syscfg get bridge_mode&lt;/b&gt;&lt;/div&gt;&lt;div style=&quot;font-size: 16px; color: rgb(51, 51, 51); font-family: &amp;quot;Courier New&amp;quot;; text-align: left; text-wrap: wrap;&quot;&gt;0&lt;/div&gt;&lt;div style=&quot;font-size: 16px; color: rgb(51, 51, 51); font-family: &amp;quot;Courier New&amp;quot;; text-align: left; text-wrap: wrap;&quot;&gt;2&lt;/div&gt;&lt;div style=&quot;font-size: 16px; color: rgb(51, 51, 51); font-family: &amp;quot;Courier New&amp;quot;; text-align: left; text-wrap: wrap;&quot;&gt;(3)&lt;/div&gt;&lt;div style=&quot;font-size: 16px; color: rgb(51, 51, 51); font-family: &amp;quot;Courier New&amp;quot;; text-align: left; text-wrap: wrap;&quot;&gt;&lt;br style=&quot;font-size: 16px;&quot;&gt;&lt;/div&gt;&lt;div style=&quot;font-size: 16px; color: rgb(51, 51, 51); font-family: &amp;quot;Courier New&amp;quot;; text-align: left; text-wrap: wrap;&quot;&gt;&lt;b style=&quot;font-size: 16px;&quot;&gt;syscfg get last_erouter_mode&lt;/b&gt;&lt;/div&gt;&lt;div style=&quot;font-size: 16px; color: rgb(51, 51, 51); font-family: &amp;quot;Courier New&amp;quot;; text-align: left; text-wrap: wrap;&quot;&gt;0&lt;/div&gt;&lt;div style=&quot;font-size: 16px; color: rgb(51, 51, 51); font-family: &amp;quot;Courier New&amp;quot;; text-align: left; text-wrap: wrap;&quot;&gt;1&lt;/div&gt;&lt;div style=&quot;font-size: 16px; color: rgb(51, 51, 51); font-family: &amp;quot;Courier New&amp;quot;; text-align: left; text-wrap: wrap;&quot;&gt;2&lt;/div&gt;&lt;div style=&quot;font-size: 16px; color: rgb(51, 51, 51); font-family: &amp;quot;Courier New&amp;quot;; text-align: left; text-wrap: wrap;&quot;&gt;3&lt;/div&gt;&lt;/div&gt;" style="text;html=1;align=center;verticalAlign=middle;resizable=0;points=[];autosize=1;strokeColor=none;fillColor=none;fontSize=16;" parent="1" vertex="1">
          <mxGeometry x="125" y="-2152.5" width="610" height="570" as="geometry" />
        </mxCell>
        <mxCell id="r4h9uiGMZSQ4bL8BECDt-201" value="&lt;div&gt;full_transparent_bridge_mode&lt;/div&gt;&lt;div&gt;&lt;br&gt;&lt;/div&gt;&lt;div&gt;create vlan veip1.0&lt;/div&gt;&lt;div&gt;add to brlan0&lt;/div&gt;&lt;div&gt;&lt;br&gt;&lt;/div&gt;" style="rounded=1;whiteSpace=wrap;html=1;verticalAlign=top;" parent="1" vertex="1">
          <mxGeometry x="1298.75" y="-1530" width="177.5" height="90" as="geometry" />
        </mxCell>
        <mxCell id="r4h9uiGMZSQ4bL8BECDt-234" value="&lt;b style=&quot;font-size: 22px;&quot;&gt;PSEUDO BRIDGE MODE XGSPON&lt;/b&gt;" style="rounded=1;whiteSpace=wrap;html=1;fillColor=#f5f5f5;fontColor=#333333;strokeColor=#666666;strokeWidth=2;verticalAlign=top;fontSize=22;" parent="1" vertex="1">
          <mxGeometry x="817.5" y="-2400" width="880" height="480" as="geometry" />
        </mxCell>
        <mxCell id="r4h9uiGMZSQ4bL8BECDt-235" value="&lt;div style=&quot;font-size: 20px;&quot;&gt;&lt;font color=&quot;#82b366&quot; style=&quot;font-size: 20px;&quot;&gt;&lt;span style=&quot;font-size: 20px;&quot;&gt;&lt;b style=&quot;font-size: 20px;&quot;&gt;brlan0&lt;/b&gt;&lt;/span&gt;&lt;/font&gt;&lt;/div&gt;" style="rounded=1;whiteSpace=wrap;html=1;fillColor=#d5e8d4;strokeColor=#82b366;verticalAlign=top;strokeWidth=4;fontSize=20;" parent="1" vertex="1">
          <mxGeometry x="897.5" y="-2340" width="540" height="290" as="geometry" />
        </mxCell>
        <mxCell id="r4h9uiGMZSQ4bL8BECDt-239" value="&lt;font color=&quot;#d6b656&quot; style=&quot;font-size: 16px;&quot;&gt;erouter0_pipe&lt;br&gt;&lt;/font&gt;" style="rounded=0;whiteSpace=wrap;html=1;fillColor=#fff2cc;strokeColor=#d6b656;fontStyle=1;strokeWidth=2;fontSize=16;" parent="1" vertex="1">
          <mxGeometry x="1212.5" y="-2210" width="145" height="50" as="geometry" />
        </mxCell>
        <mxCell id="r4h9uiGMZSQ4bL8BECDt-240" value="" style="edgeStyle=orthogonalEdgeStyle;rounded=0;orthogonalLoop=1;jettySize=auto;html=1;endArrow=none;fillColor=#dae8fc;strokeColor=#6c8ebf;" parent="1" source="r4h9uiGMZSQ4bL8BECDt-241" target="r4h9uiGMZSQ4bL8BECDt-250" edge="1">
          <mxGeometry relative="1" as="geometry" />
        </mxCell>
        <mxCell id="r4h9uiGMZSQ4bL8BECDt-241" value="&lt;span style=&quot;color: rgb(130, 179, 102);&quot;&gt;eth1&lt;/span&gt;" style="rounded=0;whiteSpace=wrap;html=1;fillColor=#d5e8d4;strokeColor=#82b366;fontStyle=1;strokeWidth=1;fontSize=16;" parent="1" vertex="1">
          <mxGeometry x="927.5" y="-2300" width="90" height="50" as="geometry" />
        </mxCell>
        <mxCell id="r4h9uiGMZSQ4bL8BECDt-242" value="" style="edgeStyle=orthogonalEdgeStyle;rounded=0;orthogonalLoop=1;jettySize=auto;html=1;endArrow=none;fillColor=#dae8fc;strokeColor=#6c8ebf;" parent="1" source="r4h9uiGMZSQ4bL8BECDt-243" target="r4h9uiGMZSQ4bL8BECDt-251" edge="1">
          <mxGeometry relative="1" as="geometry" />
        </mxCell>
        <mxCell id="r4h9uiGMZSQ4bL8BECDt-243" value="&lt;span style=&quot;color: rgb(130, 179, 102);&quot;&gt;eth2&lt;/span&gt;" style="rounded=0;whiteSpace=wrap;html=1;fillColor=#d5e8d4;strokeColor=#82b366;fontStyle=1;strokeWidth=1;fontSize=16;" parent="1" vertex="1">
          <mxGeometry x="927.5" y="-2245" width="90" height="50" as="geometry" />
        </mxCell>
        <mxCell id="r4h9uiGMZSQ4bL8BECDt-244" value="" style="edgeStyle=orthogonalEdgeStyle;rounded=0;orthogonalLoop=1;jettySize=auto;html=1;endArrow=none;fillColor=#dae8fc;strokeColor=#6c8ebf;" parent="1" source="r4h9uiGMZSQ4bL8BECDt-245" target="r4h9uiGMZSQ4bL8BECDt-252" edge="1">
          <mxGeometry relative="1" as="geometry" />
        </mxCell>
        <mxCell id="r4h9uiGMZSQ4bL8BECDt-245" value="&lt;span style=&quot;color: rgb(130, 179, 102);&quot;&gt;eth3&lt;/span&gt;" style="rounded=0;whiteSpace=wrap;html=1;fillColor=#d5e8d4;strokeColor=#82b366;fontStyle=1;strokeWidth=1;fontSize=16;" parent="1" vertex="1">
          <mxGeometry x="927.5" y="-2190" width="90" height="50" as="geometry" />
        </mxCell>
        <mxCell id="r4h9uiGMZSQ4bL8BECDt-246" value="" style="edgeStyle=orthogonalEdgeStyle;rounded=0;orthogonalLoop=1;jettySize=auto;html=1;endArrow=none;fillColor=#dae8fc;strokeColor=#6c8ebf;" parent="1" source="r4h9uiGMZSQ4bL8BECDt-247" target="r4h9uiGMZSQ4bL8BECDt-253" edge="1">
          <mxGeometry relative="1" as="geometry" />
        </mxCell>
        <mxCell id="r4h9uiGMZSQ4bL8BECDt-247" value="&lt;span style=&quot;color: rgb(130, 179, 102);&quot;&gt;eth4&lt;/span&gt;" style="rounded=0;whiteSpace=wrap;html=1;fillColor=#d5e8d4;strokeColor=#82b366;fontStyle=1;strokeWidth=1;fontSize=16;" parent="1" vertex="1">
          <mxGeometry x="927.5" y="-2135" width="90" height="50" as="geometry" />
        </mxCell>
        <mxCell id="r4h9uiGMZSQ4bL8BECDt-248" value="" style="edgeStyle=orthogonalEdgeStyle;rounded=0;orthogonalLoop=1;jettySize=auto;html=1;endArrow=none;fillColor=#fff2cc;strokeColor=#d6b656;" parent="1" source="r4h9uiGMZSQ4bL8BECDt-260" target="r4h9uiGMZSQ4bL8BECDt-239" edge="1">
          <mxGeometry relative="1" as="geometry">
            <Array as="points">
              <mxPoint x="1382.5" y="-2185" />
            </Array>
          </mxGeometry>
        </mxCell>
        <mxCell id="r4h9uiGMZSQ4bL8BECDt-249" value="WAN" style="whiteSpace=wrap;html=1;aspect=fixed;strokeWidth=3;" parent="1" vertex="1">
          <mxGeometry x="1617.5" y="-2250" width="80" height="80" as="geometry" />
        </mxCell>
        <mxCell id="r4h9uiGMZSQ4bL8BECDt-250" value="LAN" style="whiteSpace=wrap;html=1;aspect=fixed;strokeWidth=3;" parent="1" vertex="1">
          <mxGeometry x="817.5" y="-2300" width="50" height="50" as="geometry" />
        </mxCell>
        <mxCell id="r4h9uiGMZSQ4bL8BECDt-251" value="LAN" style="whiteSpace=wrap;html=1;aspect=fixed;strokeWidth=3;" parent="1" vertex="1">
          <mxGeometry x="817.5" y="-2245" width="50" height="50" as="geometry" />
        </mxCell>
        <mxCell id="r4h9uiGMZSQ4bL8BECDt-252" value="LAN" style="whiteSpace=wrap;html=1;aspect=fixed;strokeWidth=3;" parent="1" vertex="1">
          <mxGeometry x="817.5" y="-2190" width="50" height="50" as="geometry" />
        </mxCell>
        <mxCell id="r4h9uiGMZSQ4bL8BECDt-253" value="LAN" style="whiteSpace=wrap;html=1;aspect=fixed;strokeWidth=3;" parent="1" vertex="1">
          <mxGeometry x="817.5" y="-2135" width="50" height="50" as="geometry" />
        </mxCell>
        <mxCell id="r4h9uiGMZSQ4bL8BECDt-259" value="" style="edgeStyle=orthogonalEdgeStyle;rounded=0;orthogonalLoop=1;jettySize=auto;html=1;endArrow=none;fillColor=#fff2cc;strokeColor=#d6b656;" parent="1" source="r4h9uiGMZSQ4bL8BECDt-249" target="r4h9uiGMZSQ4bL8BECDt-258" edge="1">
          <mxGeometry relative="1" as="geometry">
            <mxPoint x="1627.5" y="-2210" as="targetPoint" />
            <mxPoint x="1627.5" y="-2210" as="sourcePoint" />
          </mxGeometry>
        </mxCell>
        <mxCell id="r4h9uiGMZSQ4bL8BECDt-260" value="&lt;font color=&quot;#d6b656&quot;&gt;erouter0&lt;/font&gt;" style="rounded=0;whiteSpace=wrap;html=1;fillColor=#fff2cc;strokeColor=#d6b656;fontStyle=1;strokeWidth=2;fontSize=16;verticalAlign=top;" parent="1" vertex="1">
          <mxGeometry x="1295" y="-2030" width="132.5" height="90" as="geometry" />
        </mxCell>
        <mxCell id="r4h9uiGMZSQ4bL8BECDt-261" value="&lt;font color=&quot;#d6b656&quot;&gt;mg0&lt;/font&gt;" style="rounded=0;whiteSpace=wrap;html=1;fillColor=#fff2cc;strokeColor=#d6b656;fontStyle=1;strokeWidth=2;fontSize=16;verticalAlign=top;" parent="1" vertex="1">
          <mxGeometry x="1467.5" y="-2240" width="70" height="60" as="geometry" />
        </mxCell>
        <mxCell id="r4h9uiGMZSQ4bL8BECDt-262" value="&lt;font color=&quot;#d6b656&quot;&gt;voip0&lt;/font&gt;" style="rounded=0;whiteSpace=wrap;html=1;fillColor=#fff2cc;strokeColor=#d6b656;fontStyle=1;strokeWidth=2;fontSize=16;verticalAlign=top;" parent="1" vertex="1">
          <mxGeometry x="1467.5" y="-2180" width="70" height="60" as="geometry" />
        </mxCell>
        <mxCell id="r4h9uiGMZSQ4bL8BECDt-263" value="&lt;font color=&quot;#d6b656&quot; style=&quot;font-size: 16px;&quot;&gt;wan_upper&lt;br&gt;&lt;/font&gt;" style="rounded=0;whiteSpace=wrap;html=1;fillColor=#fff2cc;strokeColor=#d6b656;fontStyle=1;strokeWidth=2;fontSize=16;" parent="1" vertex="1">
          <mxGeometry x="1212.5" y="-2295" width="145" height="50" as="geometry" />
        </mxCell>
        <mxCell id="r4h9uiGMZSQ4bL8BECDt-264" value="&lt;font color=&quot;#000000&quot;&gt;veip0.1&lt;/font&gt;" style="rounded=0;whiteSpace=wrap;html=1;fillColor=#f5f5f5;strokeColor=#666666;fontStyle=1;strokeWidth=2;fontSize=16;fontColor=#333333;" parent="1" vertex="1">
          <mxGeometry x="1357.5" y="-2295" width="60" height="50" as="geometry" />
        </mxCell>
        <mxCell id="r4h9uiGMZSQ4bL8BECDt-265" value="" style="edgeStyle=orthogonalEdgeStyle;rounded=0;orthogonalLoop=1;jettySize=auto;html=1;endArrow=none;fillColor=#fff2cc;strokeColor=#d6b656;" parent="1" source="r4h9uiGMZSQ4bL8BECDt-249" target="r4h9uiGMZSQ4bL8BECDt-264" edge="1">
          <mxGeometry relative="1" as="geometry">
            <mxPoint x="1392.5" y="-2020" as="sourcePoint" />
            <mxPoint x="1367.5" y="-2175" as="targetPoint" />
            <Array as="points">
              <mxPoint x="1657.5" y="-2270" />
            </Array>
          </mxGeometry>
        </mxCell>
        <mxCell id="r4h9uiGMZSQ4bL8BECDt-266" value="&lt;b style=&quot;font-size: 22px;&quot;&gt;RG NAT PASSTHROUGH MODE&lt;/b&gt;" style="rounded=1;whiteSpace=wrap;html=1;fillColor=#f5f5f5;fontColor=#333333;strokeColor=#666666;strokeWidth=2;verticalAlign=top;fontSize=22;" parent="1" vertex="1">
          <mxGeometry x="-1040" y="-2914.5" width="800" height="380" as="geometry" />
        </mxCell>
        <mxCell id="r4h9uiGMZSQ4bL8BECDt-267" value="&lt;div style=&quot;font-size: 20px;&quot;&gt;&lt;font color=&quot;#d6b656&quot; style=&quot;font-size: 20px;&quot;&gt;&lt;span style=&quot;font-size: 20px;&quot;&gt;&lt;b style=&quot;font-size: 20px;&quot;&gt;erouter0&lt;/b&gt;&lt;/span&gt;&lt;/font&gt;&lt;/div&gt;&lt;div style=&quot;font-size: 20px;&quot;&gt;&lt;span style=&quot;color: rgb(214, 182, 86); font-size: 16px;&quot;&gt;10.107.200.x&lt;/span&gt;&lt;font color=&quot;#d6b656&quot; style=&quot;font-size: 20px;&quot;&gt;&lt;span style=&quot;font-size: 20px;&quot;&gt;&lt;b style=&quot;font-size: 20px;&quot;&gt;&lt;br&gt;&lt;/b&gt;&lt;/span&gt;&lt;/font&gt;&lt;/div&gt;" style="rounded=1;whiteSpace=wrap;html=1;fillColor=#fff2cc;strokeColor=#d6b656;verticalAlign=top;strokeWidth=4;fontSize=20;" parent="1" vertex="1">
          <mxGeometry x="-425" y="-2784.5" width="140" height="210" as="geometry" />
        </mxCell>
        <mxCell id="r4h9uiGMZSQ4bL8BECDt-268" value="&lt;font color=&quot;#d6b656&quot; style=&quot;font-size: 16px;&quot;&gt;lbr0&lt;/font&gt;&lt;div&gt;&lt;font color=&quot;#d6b656&quot; style=&quot;font-size: 16px;&quot;&gt;(=cm0)&lt;/font&gt;&lt;/div&gt;" style="rounded=0;whiteSpace=wrap;html=1;fillColor=#fff2cc;strokeColor=#d6b656;fontStyle=1;strokeWidth=2;fontSize=16;" parent="1" vertex="1">
          <mxGeometry x="-395" y="-2715.75" width="70" height="47.5" as="geometry" />
        </mxCell>
        <mxCell id="r4h9uiGMZSQ4bL8BECDt-269" value="" style="edgeStyle=orthogonalEdgeStyle;rounded=0;orthogonalLoop=1;jettySize=auto;html=1;endArrow=none;fillColor=#d5e8d4;strokeColor=#82b366;" parent="1" source="r4h9uiGMZSQ4bL8BECDt-270" target="r4h9uiGMZSQ4bL8BECDt-286" edge="1">
          <mxGeometry relative="1" as="geometry">
            <Array as="points">
              <mxPoint x="-630" y="-2679.5" />
              <mxPoint x="-630" y="-2679.5" />
            </Array>
          </mxGeometry>
        </mxCell>
        <mxCell id="r4h9uiGMZSQ4bL8BECDt-270" value="&lt;div style=&quot;font-size: 20px;&quot;&gt;&lt;font color=&quot;#82b366&quot; style=&quot;font-size: 20px;&quot;&gt;&lt;span style=&quot;font-size: 20px;&quot;&gt;&lt;b style=&quot;font-size: 20px;&quot;&gt;brlan0&amp;nbsp;&lt;/b&gt;&lt;/span&gt;&lt;/font&gt;&lt;span style=&quot;color: rgb(130, 179, 102); background-color: initial;&quot;&gt;192.168.0.1 / 24&lt;/span&gt;&lt;/div&gt;" style="rounded=1;whiteSpace=wrap;html=1;fillColor=#d5e8d4;strokeColor=#82b366;verticalAlign=top;strokeWidth=4;fontSize=20;" parent="1" vertex="1">
          <mxGeometry x="-960" y="-2869.5" width="290" height="300" as="geometry" />
        </mxCell>
        <mxCell id="r4h9uiGMZSQ4bL8BECDt-273" value="" style="edgeStyle=orthogonalEdgeStyle;rounded=0;orthogonalLoop=1;jettySize=auto;html=1;endArrow=none;fillColor=#dae8fc;strokeColor=#6c8ebf;" parent="1" source="r4h9uiGMZSQ4bL8BECDt-274" target="r4h9uiGMZSQ4bL8BECDt-281" edge="1">
          <mxGeometry relative="1" as="geometry" />
        </mxCell>
        <mxCell id="r4h9uiGMZSQ4bL8BECDt-274" value="&lt;span style=&quot;color: rgb(130, 179, 102);&quot;&gt;eth1&lt;/span&gt;" style="rounded=0;whiteSpace=wrap;html=1;fillColor=#d5e8d4;strokeColor=#82b366;fontStyle=1;strokeWidth=1;fontSize=16;" parent="1" vertex="1">
          <mxGeometry x="-930" y="-2817" width="90" height="50" as="geometry" />
        </mxCell>
        <mxCell id="r4h9uiGMZSQ4bL8BECDt-275" value="" style="edgeStyle=orthogonalEdgeStyle;rounded=0;orthogonalLoop=1;jettySize=auto;html=1;endArrow=none;fillColor=#dae8fc;strokeColor=#6c8ebf;" parent="1" source="r4h9uiGMZSQ4bL8BECDt-276" target="r4h9uiGMZSQ4bL8BECDt-282" edge="1">
          <mxGeometry relative="1" as="geometry" />
        </mxCell>
        <mxCell id="r4h9uiGMZSQ4bL8BECDt-276" value="&lt;span style=&quot;color: rgb(130, 179, 102);&quot;&gt;eth1&lt;/span&gt;" style="rounded=0;whiteSpace=wrap;html=1;fillColor=#d5e8d4;strokeColor=#82b366;fontStyle=1;strokeWidth=1;fontSize=16;" parent="1" vertex="1">
          <mxGeometry x="-930" y="-2762" width="90" height="50" as="geometry" />
        </mxCell>
        <mxCell id="r4h9uiGMZSQ4bL8BECDt-277" value="" style="edgeStyle=orthogonalEdgeStyle;rounded=0;orthogonalLoop=1;jettySize=auto;html=1;endArrow=none;fillColor=#dae8fc;strokeColor=#6c8ebf;" parent="1" source="r4h9uiGMZSQ4bL8BECDt-278" target="r4h9uiGMZSQ4bL8BECDt-283" edge="1">
          <mxGeometry relative="1" as="geometry" />
        </mxCell>
        <mxCell id="r4h9uiGMZSQ4bL8BECDt-278" value="&lt;span style=&quot;color: rgb(130, 179, 102);&quot;&gt;eth2&lt;/span&gt;" style="rounded=0;whiteSpace=wrap;html=1;fillColor=#d5e8d4;strokeColor=#82b366;fontStyle=1;strokeWidth=1;fontSize=16;" parent="1" vertex="1">
          <mxGeometry x="-930" y="-2707" width="90" height="50" as="geometry" />
        </mxCell>
        <mxCell id="r4h9uiGMZSQ4bL8BECDt-279" value="" style="edgeStyle=orthogonalEdgeStyle;rounded=0;orthogonalLoop=1;jettySize=auto;html=1;endArrow=none;fillColor=#dae8fc;strokeColor=#6c8ebf;" parent="1" source="r4h9uiGMZSQ4bL8BECDt-280" target="r4h9uiGMZSQ4bL8BECDt-284" edge="1">
          <mxGeometry relative="1" as="geometry" />
        </mxCell>
        <mxCell id="r4h9uiGMZSQ4bL8BECDt-280" value="&lt;span style=&quot;color: rgb(130, 179, 102);&quot;&gt;eth3&lt;/span&gt;" style="rounded=0;whiteSpace=wrap;html=1;fillColor=#d5e8d4;strokeColor=#82b366;fontStyle=1;strokeWidth=1;fontSize=16;" parent="1" vertex="1">
          <mxGeometry x="-930" y="-2652" width="90" height="50" as="geometry" />
        </mxCell>
        <mxCell id="r4h9uiGMZSQ4bL8BECDt-281" value="LAN" style="whiteSpace=wrap;html=1;aspect=fixed;strokeWidth=3;" parent="1" vertex="1">
          <mxGeometry x="-1040" y="-2817" width="50" height="50" as="geometry" />
        </mxCell>
        <mxCell id="r4h9uiGMZSQ4bL8BECDt-282" value="LAN" style="whiteSpace=wrap;html=1;aspect=fixed;strokeWidth=3;" parent="1" vertex="1">
          <mxGeometry x="-1040" y="-2762" width="50" height="50" as="geometry" />
        </mxCell>
        <mxCell id="r4h9uiGMZSQ4bL8BECDt-283" value="LAN" style="whiteSpace=wrap;html=1;aspect=fixed;strokeWidth=3;" parent="1" vertex="1">
          <mxGeometry x="-1040" y="-2707" width="50" height="50" as="geometry" />
        </mxCell>
        <mxCell id="r4h9uiGMZSQ4bL8BECDt-284" value="LAN" style="whiteSpace=wrap;html=1;aspect=fixed;strokeWidth=3;" parent="1" vertex="1">
          <mxGeometry x="-1040" y="-2652" width="50" height="50" as="geometry" />
        </mxCell>
        <mxCell id="r4h9uiGMZSQ4bL8BECDt-285" value="" style="edgeStyle=orthogonalEdgeStyle;rounded=0;orthogonalLoop=1;jettySize=auto;html=1;endArrow=none;fillColor=#fff2cc;strokeColor=#d6b656;" parent="1" source="r4h9uiGMZSQ4bL8BECDt-286" target="r4h9uiGMZSQ4bL8BECDt-267" edge="1">
          <mxGeometry relative="1" as="geometry" />
        </mxCell>
        <mxCell id="r4h9uiGMZSQ4bL8BECDt-286" value="&lt;b&gt;NAT&lt;/b&gt;&lt;div&gt;&lt;b style=&quot;background-color: initial;&quot;&gt;DHCP&lt;/b&gt;&lt;br&gt;&lt;/div&gt;&lt;div&gt;&lt;b style=&quot;background-color: initial;&quot;&gt;DNS&lt;/b&gt;&lt;/div&gt;" style="shape=parallelogram;perimeter=parallelogramPerimeter;whiteSpace=wrap;html=1;fixedSize=1;strokeWidth=2;" parent="1" vertex="1">
          <mxGeometry x="-600" y="-2719.5" width="120" height="80" as="geometry" />
        </mxCell>
        <mxCell id="r4h9uiGMZSQ4bL8BECDt-287" value="&lt;font color=&quot;#d79b00&quot;&gt;macpt&lt;/font&gt;" style="rounded=0;whiteSpace=wrap;html=1;fillColor=#fff2cc;strokeColor=#d6b656;fontStyle=1;strokeWidth=2;fontSize=16;" parent="1" vertex="1">
          <mxGeometry x="-405" y="-2632" width="90" height="35" as="geometry" />
        </mxCell>
        <mxCell id="r4h9uiGMZSQ4bL8BECDt-289" value="&lt;font color=&quot;#d79b00&quot;&gt;proc/macpt&lt;/font&gt;" style="shape=parallelogram;perimeter=parallelogramPerimeter;whiteSpace=wrap;html=1;fixedSize=1;fillColor=#fff2cc;strokeColor=#d6b656;" parent="1" vertex="1">
          <mxGeometry x="-575" y="-2599.5" width="120" height="30" as="geometry" />
        </mxCell>
        <mxCell id="r4h9uiGMZSQ4bL8BECDt-290" value="" style="rounded=1;whiteSpace=wrap;html=1;fillColor=#f5f5f5;fontColor=#333333;strokeColor=#666666;strokeWidth=2;verticalAlign=top;fontSize=22;" parent="1" vertex="1">
          <mxGeometry x="-410" y="-1582.5" width="485" height="300" as="geometry" />
        </mxCell>
        <mxCell id="r4h9uiGMZSQ4bL8BECDt-291" value="" style="edgeStyle=orthogonalEdgeStyle;rounded=0;orthogonalLoop=1;jettySize=auto;html=1;" parent="1" source="r4h9uiGMZSQ4bL8BECDt-292" target="r4h9uiGMZSQ4bL8BECDt-293" edge="1">
          <mxGeometry relative="1" as="geometry" />
        </mxCell>
        <mxCell id="r4h9uiGMZSQ4bL8BECDt-292" value="ccsp-p-and-m" style="rounded=1;whiteSpace=wrap;html=1;" parent="1" vertex="1">
          <mxGeometry x="-370" y="-1552.5" width="120" height="80" as="geometry" />
        </mxCell>
        <mxCell id="r4h9uiGMZSQ4bL8BECDt-293" value="nat_passthrough.sh&lt;div&gt;&lt;br&gt;&lt;/div&gt;&lt;div&gt;install macpt driver&lt;/div&gt;&lt;div&gt;add macpt interface&lt;/div&gt;&lt;div&gt;configure macpt driver&lt;/div&gt;" style="rounded=1;whiteSpace=wrap;html=1;verticalAlign=top;" parent="1" vertex="1">
          <mxGeometry x="-370" y="-1407.5" width="290" height="95" as="geometry" />
        </mxCell>
        <mxCell id="r4h9uiGMZSQ4bL8BECDt-298" value="" style="edgeStyle=orthogonalEdgeStyle;rounded=0;orthogonalLoop=1;jettySize=auto;html=1;endArrow=none;" parent="1" source="r4h9uiGMZSQ4bL8BECDt-296" target="r4h9uiGMZSQ4bL8BECDt-115" edge="1">
          <mxGeometry relative="1" as="geometry">
            <mxPoint x="-685" y="-1507.5" as="targetPoint" />
          </mxGeometry>
        </mxCell>
        <mxCell id="r4h9uiGMZSQ4bL8BECDt-306" value="docsis&lt;div&gt;events&lt;/div&gt;" style="edgeLabel;html=1;align=center;verticalAlign=middle;resizable=0;points=[];" parent="r4h9uiGMZSQ4bL8BECDt-298" vertex="1" connectable="0">
          <mxGeometry x="-0.1559" y="-1" relative="1" as="geometry">
            <mxPoint x="-1" y="26" as="offset" />
          </mxGeometry>
        </mxCell>
        <mxCell id="r4h9uiGMZSQ4bL8BECDt-296" value="libgwprovappabs.so" style="rounded=1;whiteSpace=wrap;html=1;verticalAlign=middle;" parent="1" vertex="1">
          <mxGeometry x="-650" y="-1470" width="120" height="25" as="geometry" />
        </mxCell>
        <mxCell id="r4h9uiGMZSQ4bL8BECDt-297" value="libcm_mgnt.so" style="rounded=1;whiteSpace=wrap;html=1;verticalAlign=middle;" parent="1" vertex="1">
          <mxGeometry x="-650" y="-1512.5" width="120" height="25" as="geometry" />
        </mxCell>
        <mxCell id="r4h9uiGMZSQ4bL8BECDt-299" value="" style="edgeStyle=orthogonalEdgeStyle;rounded=0;orthogonalLoop=1;jettySize=auto;html=1;endArrow=none;" parent="1" source="r4h9uiGMZSQ4bL8BECDt-297" target="r4h9uiGMZSQ4bL8BECDt-115" edge="1">
          <mxGeometry relative="1" as="geometry">
            <mxPoint x="-630" y="-1517.5" as="sourcePoint" />
            <mxPoint x="-685" y="-1507.5" as="targetPoint" />
          </mxGeometry>
        </mxCell>
        <mxCell id="r4h9uiGMZSQ4bL8BECDt-307" value="cm hal" style="edgeLabel;html=1;align=center;verticalAlign=middle;resizable=0;points=[];" parent="r4h9uiGMZSQ4bL8BECDt-299" vertex="1" connectable="0">
          <mxGeometry x="0.4478" y="1" relative="1" as="geometry">
            <mxPoint x="1" y="-68" as="offset" />
          </mxGeometry>
        </mxCell>
        <mxCell id="r4h9uiGMZSQ4bL8BECDt-302" value="" style="edgeStyle=orthogonalEdgeStyle;rounded=0;orthogonalLoop=1;jettySize=auto;html=1;" parent="1" source="r4h9uiGMZSQ4bL8BECDt-300" target="r4h9uiGMZSQ4bL8BECDt-301" edge="1">
          <mxGeometry relative="1" as="geometry">
            <Array as="points">
              <mxPoint x="-795" y="-1449.5" />
            </Array>
          </mxGeometry>
        </mxCell>
        <mxCell id="r4h9uiGMZSQ4bL8BECDt-300" value="" style="rhombus;whiteSpace=wrap;html=1;" parent="1" vertex="1">
          <mxGeometry x="-955" y="-1487.5" width="80" height="75" as="geometry" />
        </mxCell>
        <mxCell id="r4h9uiGMZSQ4bL8BECDt-301" value="EnterBridgemode()&lt;div&gt;&lt;/div&gt;" style="rounded=1;whiteSpace=wrap;html=1;" parent="1" vertex="1">
          <mxGeometry x="-855" y="-1422.5" width="120" height="40" as="geometry" />
        </mxCell>
        <mxCell id="r4h9uiGMZSQ4bL8BECDt-303" value="&lt;b style=&quot;color: rgb(51, 51, 51); font-family: &amp;quot;Courier New&amp;quot;; font-size: 14px; text-align: left; text-wrap: wrap;&quot;&gt;Device.NAT.X_LGI-COM_NATPassthroughFunctionEnable&lt;/b&gt;" style="text;html=1;align=center;verticalAlign=middle;resizable=0;points=[];autosize=1;strokeColor=none;fillColor=none;" parent="1" vertex="1">
          <mxGeometry x="-315" y="-1537.5" width="440" height="30" as="geometry" />
        </mxCell>
        <mxCell id="r4h9uiGMZSQ4bL8BECDt-304" value="&lt;div&gt;&lt;font color=&quot;#b85450&quot;&gt;iperf&lt;/font&gt;&lt;/div&gt;" style="rounded=0;whiteSpace=wrap;html=1;fillColor=#f8cecc;strokeColor=#b85450;fontStyle=0;strokeWidth=2;fontSize=16;shape=parallelogram;perimeter=parallelogramPerimeter;fixedSize=1;" parent="1" vertex="1">
          <mxGeometry x="-405" y="-2175.75" width="85" height="90" as="geometry" />
        </mxCell>
        <mxCell id="r4h9uiGMZSQ4bL8BECDt-305" value="&lt;font color=&quot;#c99c35&quot;&gt;tr069&lt;/font&gt;" style="rounded=0;whiteSpace=wrap;html=1;fillColor=#ffe6cc;strokeColor=#d79b00;fontStyle=0;strokeWidth=2;fontSize=16;shape=parallelogram;perimeter=parallelogramPerimeter;fixedSize=1;" parent="1" vertex="1">
          <mxGeometry x="-560" y="-2040" width="92.5" height="80" as="geometry" />
        </mxCell>
        <mxCell id="r4h9uiGMZSQ4bL8BECDt-309" value="" style="shape=flexArrow;endArrow=classic;html=1;rounded=0;fillColor=#e1d5e7;strokeColor=#9673a6;" parent="1" edge="1">
          <mxGeometry width="50" height="50" relative="1" as="geometry">
            <mxPoint x="-1015" y="-2225.75" as="sourcePoint" />
            <mxPoint x="-905" y="-2225.75" as="targetPoint" />
          </mxGeometry>
        </mxCell>
        <mxCell id="r4h9uiGMZSQ4bL8BECDt-310" value="" style="shape=flexArrow;endArrow=classic;html=1;rounded=0;fillColor=#f8cecc;strokeColor=#b85450;" parent="1" edge="1">
          <mxGeometry width="50" height="50" relative="1" as="geometry">
            <mxPoint x="-365" y="-2223.1800000000003" as="sourcePoint" />
            <mxPoint x="-255" y="-2223.1800000000003" as="targetPoint" />
          </mxGeometry>
        </mxCell>
        <mxCell id="r4h9uiGMZSQ4bL8BECDt-319" value="" style="edgeStyle=orthogonalEdgeStyle;rounded=0;orthogonalLoop=1;jettySize=auto;html=1;" parent="1" source="r4h9uiGMZSQ4bL8BECDt-318" target="r4h9uiGMZSQ4bL8BECDt-296" edge="1">
          <mxGeometry relative="1" as="geometry" />
        </mxCell>
        <mxCell id="r4h9uiGMZSQ4bL8BECDt-320" value="(sub) TLV&#39;s" style="edgeLabel;html=1;align=center;verticalAlign=middle;resizable=0;points=[];" parent="r4h9uiGMZSQ4bL8BECDt-319" vertex="1" connectable="0">
          <mxGeometry x="0.0788" y="1" relative="1" as="geometry">
            <mxPoint x="39" y="2" as="offset" />
          </mxGeometry>
        </mxCell>
        <mxCell id="r4h9uiGMZSQ4bL8BECDt-318" value="liblattice&lt;div&gt;liblattice_rpctlv&lt;/div&gt;" style="rounded=1;whiteSpace=wrap;html=1;verticalAlign=top;" parent="1" vertex="1">
          <mxGeometry x="-635" y="-1417.5" width="90" height="40" as="geometry" />
        </mxCell>
        <mxCell id="r4h9uiGMZSQ4bL8BECDt-324" value="" style="edgeStyle=orthogonalEdgeStyle;rounded=0;orthogonalLoop=1;jettySize=auto;html=1;" parent="1" source="r4h9uiGMZSQ4bL8BECDt-321" target="r4h9uiGMZSQ4bL8BECDt-318" edge="1">
          <mxGeometry relative="1" as="geometry">
            <mxPoint x="-480" y="-1440" as="targetPoint" />
          </mxGeometry>
        </mxCell>
        <UserObject label="&lt;span style=&quot;color: rgb(0, 0, 0); font-family: Helvetica; font-size: 12px; font-style: normal; font-variant-ligatures: normal; font-variant-caps: normal; font-weight: 400; letter-spacing: normal; orphans: 2; text-align: center; text-indent: 0px; text-transform: none; widows: 2; word-spacing: 0px; -webkit-text-stroke-width: 0px; white-space: nowrap; background-color: rgb(251, 251, 251); text-decoration-thickness: initial; text-decoration-style: initial; text-decoration-color: initial; display: inline !important; float: none;&quot;&gt;/var/tftpboot/eroutercfg.bin&lt;/span&gt;" id="r4h9uiGMZSQ4bL8BECDt-325">
          <mxCell style="edgeLabel;html=1;align=center;verticalAlign=middle;resizable=0;points=[];" parent="r4h9uiGMZSQ4bL8BECDt-324" vertex="1" connectable="0">
            <mxGeometry x="0.565" relative="1" as="geometry">
              <mxPoint x="60" y="34" as="offset" />
            </mxGeometry>
          </mxCell>
        </UserObject>
        <mxCell id="r4h9uiGMZSQ4bL8BECDt-321" value="CM" style="rounded=1;whiteSpace=wrap;html=1;verticalAlign=middle;fontStyle=1" parent="1" vertex="1">
          <mxGeometry x="-500" y="-1372.5" width="40" height="35" as="geometry" />
        </mxCell>
        <mxCell id="r4h9uiGMZSQ4bL8BECDt-322" value="/nvram/&lt;div&gt;TLVData.bin&lt;/div&gt;" style="text;html=1;align=center;verticalAlign=middle;resizable=0;points=[];autosize=1;strokeColor=none;fillColor=none;" parent="1" vertex="1">
          <mxGeometry x="-530" y="-1477.5" width="90" height="40" as="geometry" />
        </mxCell>
        <mxCell id="r4h9uiGMZSQ4bL8BECDt-327" value="&lt;b style=&quot;font-size: 22px;&quot;&gt;VirtNiHAL / CMIM Passthrough MODE&lt;/b&gt;&lt;div&gt;&lt;span style=&quot;background-color: initial;&quot;&gt;docsis bridge mode for max throughput (non gateway mode)&lt;/span&gt;&lt;br&gt;&lt;/div&gt;&lt;div&gt;&lt;span style=&quot;color: rgba(0, 0, 0, 0); font-family: monospace; font-size: 0px; text-align: start; text-wrap: nowrap;&quot;&gt;&lt;br&gt;&lt;/span&gt;&lt;/div&gt;&lt;div&gt;&lt;span style=&quot;color: rgba(0, 0, 0, 0); font-family: monospace; font-size: 0px; text-align: start; text-wrap: nowrap;&quot;&gt;doc%3CmxGraphModel%3E%3Croot%3E%3CmxCell%20id%3D%220%22%2F%3E%3CmxCell%20id%3D%221%22%20parent%3D%220%22%2F%3E%3CmxCell%20id%3D%222%22%20value%3D%22%26lt%3Bb%20style%3D%26quot%3Bfont-size%3A%2022px%3B%26quot%3B%26gt%3B(PSEUDO)%20BRIDGE%20MODE%26lt%3B%2Fb%26gt%3B%22%20style%3D%22rounded%3D1%3BwhiteSpace%3Dwrap%3Bhtml%3D1%3BfillColor%3D%23f5f5f5%3BfontColor%3D%23333333%3BstrokeColor%3D%23666666%3BstrokeWidth%3D2%3BverticalAlign%3Dtop%3BfontSize%3D22%3B%22%20vertex%3D%221%22%20parent%3D%221%22%3E%3CmxGeometry%20x%3D%2270%22%20y%3D%22-2095%22%20width%3D%22880%22%20height%3D%22480%22%20as%3D%22geometry%22%2F%3E%3C%2FmxCell%3E%3C%2Froot%3E%3C%2FmxGraphMode&lt;/span&gt;&lt;div&gt;&lt;span style=&quot;color: rgba(0, 0, 0, 0); font-family: monospace; font-size: 0px; text-align: start; text-wrap: nowrap; background-color: initial;&quot;&gt;%3CmxGraphModel%3E%3Croot%3E%3CmxCell%20id%3D%220%22%2F%3E%3CmxCell%20id%3D%221%22%20parent%3D%220%22%2F%3E%3CmxCell%20id%3D%222%22%20value%3D%22%26lt%3Bb%20style%3D%26quot%3Bfont-size%3A%2022px%3B%26quot%3B%26gt%3B(PSEUDO)%20BRIDGE%20MODE%26lt%3B%2Fb%26gt%3B%22%20style%3D%22rounded%3D1%3BwhiteSpace%3Dwrap%3Bhtml%3D1%3BfillColor%3D%23f5f5f5%3BfontColor%3D%23333333%3BstrokeColor%3D%23666666%3BstrokeWidth%3D2%3BverticalAlign%3Dtop%3BfontSize%3D22%3B%22%20vertex%3D%221%22%20parent%3D%221%22%3E%3CmxGeometry%20x%3D%2270%22%20y%3D%22-2095%22%20width%3D%22880%22%20height%3D%22480%22%20as%3D%22geometry%22%2F%3E%3C%2FmxCell%3E%3C%2Froot%3E%3C%2FmxGraphModel%3E&lt;/span&gt;&lt;span style=&quot;color: rgba(0, 0, 0, 0); font-family: monospace; font-size: 0px; text-align: start; text-wrap: nowrap; background-color: initial;&quot;&gt;%3CmxGraphModel%3E%3Croot%3E%3CmxCell%20id%3D%220%22%2F%3E%3CmxCell%20id%3D%221%22%20parent%3D%220%22%2F%3E%3CmxCell%20id%3D%222%22%20value%3D%22%26lt%3Bb%20style%3D%26quot%3Bfont-size%3A%2022px%3B%26quot%3B%26gt%3B(PSEUDO)%20BRIDGE%20MODE%26lt%3B%2Fb%26gt%3B%22%20style%3D%22rounded%3D1%3BwhiteSpace%3Dwrap%3Bhtml%3D1%3BfillColor%3D%23f5f5f5%3BfontColor%3D%23333333%3BstrokeColor%3D%23666666%3BstrokeWidth%3D2%3BverticalAlign%3Dtop%3BfontSize%3D22%3B%22%20vertex%3D%221%22%20parent%3D%221%22%3E%3CmxGeometry%20x%3D%2270%22%20y%3D%22-2095%22%20width%3D%22880%22%20height%3D%22480%22%20as%3D%22geometry%22%2F%3E%3C%2FmxCell%3E%3C%2Froot%3E%3C%2FmxGraphModel%3E&lt;/span&gt;&lt;span style=&quot;color: rgba(0, 0, 0, 0); font-family: monospace; font-size: 0px; text-align: start; text-wrap: nowrap; background-color: initial;&quot;&gt;%3CmxGraphModel%3E%3Croot%3E%3CmxCell%20id%3D%220%22%2F%3E%3CmxCell%20id%3D%221%22%20parent%3D%220%22%2F%3E%3CmxCell%20id%3D%222%22%20value%3D%22%26lt%3Bb%20style%3D%26quot%3Bfont-size%3A%2022px%3B%26quot%3B%26gt%3B(PSEUDO)%20BRIDGE%20MODE%26lt%3B%2Fb%26gt%3B%22%20style%3D%22rounded%3D1%3BwhiteSpace%3Dwrap%3Bhtml%3D1%3BfillColor%3D%23f5f5f5%3BfontColor%3D%23333333%3BstrokeColor%3D%23666666%3BstrokeWidth%3D2%3BverticalAlign%3Dtop%3BfontSize%3D22%3B%22%20vertex%3D%221%22%20parent%3D%221%22%3E%3CmxGeometry%20x%3D%2270%22%20y%3D%22-2095%22%20width%3D%22880%22%20height%3D%22480%22%20as%3D%22geometry%22%2F%3E%3C%2FmxCell%3E%3C%2Froot%3E%3C%2FmxGraphModel%3E&lt;/span&gt;&lt;/div&gt;&lt;/div&gt;" style="rounded=1;whiteSpace=wrap;html=1;fillColor=#f5f5f5;fontColor=#333333;strokeColor=#666666;strokeWidth=2;verticalAlign=top;fontSize=22;" parent="1" vertex="1">
          <mxGeometry x="-1030" y="-1842.5" width="880" height="190" as="geometry" />
        </mxCell>
        <mxCell id="r4h9uiGMZSQ4bL8BECDt-331" value="" style="edgeStyle=orthogonalEdgeStyle;rounded=0;orthogonalLoop=1;jettySize=auto;html=1;endArrow=none;" parent="1" source="r4h9uiGMZSQ4bL8BECDt-328" target="r4h9uiGMZSQ4bL8BECDt-329" edge="1">
          <mxGeometry relative="1" as="geometry">
            <mxPoint x="-330" y="-1747.5000000000005" as="targetPoint" />
          </mxGeometry>
        </mxCell>
        <mxCell id="r4h9uiGMZSQ4bL8BECDt-328" value="WAN" style="whiteSpace=wrap;html=1;aspect=fixed;strokeWidth=3;" parent="1" vertex="1">
          <mxGeometry x="-250" y="-1787.5" width="80" height="80" as="geometry" />
        </mxCell>
        <mxCell id="r4h9uiGMZSQ4bL8BECDt-329" value="LAN" style="whiteSpace=wrap;html=1;aspect=fixed;strokeWidth=3;" parent="1" vertex="1">
          <mxGeometry x="-1000" y="-1772.5" width="50" height="50" as="geometry" />
        </mxCell>
        <mxCell id="P5K1z4J7jGN9G_LRExKV-1" value="&lt;div&gt;&lt;font style=&quot;font-size: 16px;&quot; color=&quot;#b85450&quot;&gt;UDHCPC&lt;/font&gt;&lt;/div&gt;&lt;font style=&quot;font-size: 16px;&quot; color=&quot;#b85450&quot;&gt;10.107.200.x / 24&lt;/font&gt;" style="rounded=0;whiteSpace=wrap;html=1;fillColor=#f8cecc;strokeColor=#b85450;strokeWidth=2;dashed=1;fontSize=16;" parent="1" vertex="1">
          <mxGeometry x="2308.75" y="-1987.5" width="150" height="47.5" as="geometry" />
        </mxCell>
        <mxCell id="P5K1z4J7jGN9G_LRExKV-3" value="&lt;b style=&quot;font-size: 22px;&quot;&gt;PSEUDO BRIDGE MODE&lt;/b&gt;" style="rounded=1;whiteSpace=wrap;html=1;fillColor=#f5f5f5;fontColor=#333333;strokeColor=#666666;strokeWidth=2;verticalAlign=top;fontSize=22;" parent="1" vertex="1">
          <mxGeometry x="1900" y="-2872.5" width="880" height="485" as="geometry" />
        </mxCell>
        <mxCell id="P5K1z4J7jGN9G_LRExKV-4" value="&lt;div style=&quot;font-size: 20px;&quot;&gt;&lt;font color=&quot;#82b366&quot; style=&quot;font-size: 20px;&quot;&gt;&lt;span style=&quot;font-size: 20px;&quot;&gt;&lt;b style=&quot;font-size: 20px;&quot;&gt;brlan0&lt;/b&gt;&lt;/span&gt;&lt;/font&gt;&lt;/div&gt;" style="rounded=1;whiteSpace=wrap;html=1;fillColor=#d5e8d4;strokeColor=#82b366;verticalAlign=top;strokeWidth=4;fontSize=20;" parent="1" vertex="1">
          <mxGeometry x="1980" y="-2807.5" width="540" height="277.5" as="geometry" />
        </mxCell>
        <mxCell id="P5K1z4J7jGN9G_LRExKV-5" value="&lt;b style=&quot;font-size: 22px;&quot;&gt;ROUTER MODE&lt;/b&gt;" style="rounded=1;whiteSpace=wrap;html=1;fillColor=#f5f5f5;fontColor=#333333;strokeColor=#666666;strokeWidth=2;verticalAlign=top;fontSize=22;" parent="1" vertex="1">
          <mxGeometry x="1900" y="-3242.5" width="880" height="370" as="geometry" />
        </mxCell>
        <mxCell id="P5K1z4J7jGN9G_LRExKV-7" value="" style="edgeStyle=orthogonalEdgeStyle;rounded=0;orthogonalLoop=1;jettySize=auto;html=1;endArrow=none;fillColor=#d5e8d4;strokeColor=#82b366;" parent="1" source="P5K1z4J7jGN9G_LRExKV-8" target="P5K1z4J7jGN9G_LRExKV-42" edge="1">
          <mxGeometry relative="1" as="geometry" />
        </mxCell>
        <mxCell id="P5K1z4J7jGN9G_LRExKV-8" value="&lt;div style=&quot;font-size: 20px;&quot;&gt;&lt;font color=&quot;#82b366&quot; style=&quot;font-size: 20px;&quot;&gt;&lt;span style=&quot;font-size: 20px;&quot;&gt;&lt;b style=&quot;font-size: 20px;&quot;&gt;brlan0&amp;nbsp;&lt;/b&gt;&lt;/span&gt;&lt;/font&gt;&lt;span style=&quot;color: rgb(130, 179, 102); background-color: initial;&quot;&gt;192.168.0.1 / 24&lt;/span&gt;&lt;/div&gt;" style="rounded=1;whiteSpace=wrap;html=1;fillColor=#d5e8d4;strokeColor=#82b366;verticalAlign=top;strokeWidth=4;fontSize=20;" parent="1" vertex="1">
          <mxGeometry x="1980" y="-3212.5" width="290" height="310" as="geometry" />
        </mxCell>
        <mxCell id="P5K1z4J7jGN9G_LRExKV-9" value="" style="edgeStyle=orthogonalEdgeStyle;rounded=0;orthogonalLoop=1;jettySize=auto;html=1;endArrow=none;fillColor=#e1d5e7;strokeColor=#9673a6;" parent="1" source="P5K1z4J7jGN9G_LRExKV-10" target="P5K1z4J7jGN9G_LRExKV-11" edge="1">
          <mxGeometry relative="1" as="geometry">
            <mxPoint x="2815" y="-2237.5" as="targetPoint" />
          </mxGeometry>
        </mxCell>
        <mxCell id="P5K1z4J7jGN9G_LRExKV-10" value="&lt;font color=&quot;#9673a6&quot; style=&quot;font-size: 16px;&quot;&gt;llan0&lt;/font&gt;" style="rounded=0;whiteSpace=wrap;html=1;fillColor=#e1d5e7;strokeColor=#9673a6;fontStyle=1;strokeWidth=2;fontSize=16;" parent="1" vertex="1">
          <mxGeometry x="2140" y="-2602.5" width="60" height="50" as="geometry" />
        </mxCell>
        <mxCell id="P5K1z4J7jGN9G_LRExKV-11" value="&lt;font color=&quot;#9673a6&quot; style=&quot;font-size: 16px;&quot;&gt;lan0&lt;/font&gt;&lt;div&gt;&lt;font color=&quot;#9673a6&quot;&gt;&lt;br&gt;&lt;/font&gt;&lt;div&gt;&lt;font color=&quot;#9673a6&quot; style=&quot;font-size: 16px;&quot;&gt;192.168.100.1 / 24&lt;/font&gt;&lt;/div&gt;&lt;/div&gt;" style="rounded=0;whiteSpace=wrap;html=1;fillColor=#e1d5e7;strokeColor=#9673a6;fontStyle=1;strokeWidth=2;fontSize=16;" parent="1" vertex="1">
          <mxGeometry x="2100" y="-2497.5" width="140" height="90" as="geometry" />
        </mxCell>
        <mxCell id="P5K1z4J7jGN9G_LRExKV-12" value="" style="edgeStyle=orthogonalEdgeStyle;rounded=0;orthogonalLoop=1;jettySize=auto;html=1;endArrow=none;fillColor=#fff2cc;strokeColor=#d6b656;" parent="1" source="P5K1z4J7jGN9G_LRExKV-13" target="P5K1z4J7jGN9G_LRExKV-6" edge="1">
          <mxGeometry relative="1" as="geometry">
            <mxPoint x="2700" y="-3052.5" as="targetPoint" />
          </mxGeometry>
        </mxCell>
        <mxCell id="P5K1z4J7jGN9G_LRExKV-13" value="WAN" style="whiteSpace=wrap;html=1;aspect=fixed;strokeWidth=3;" parent="1" vertex="1">
          <mxGeometry x="2700" y="-3097.5" width="80" height="80" as="geometry" />
        </mxCell>
        <mxCell id="P5K1z4J7jGN9G_LRExKV-14" value="" style="edgeStyle=orthogonalEdgeStyle;rounded=0;orthogonalLoop=1;jettySize=auto;html=1;endArrow=none;fillColor=#dae8fc;strokeColor=#6c8ebf;" parent="1" source="P5K1z4J7jGN9G_LRExKV-15" target="P5K1z4J7jGN9G_LRExKV-22" edge="1">
          <mxGeometry relative="1" as="geometry" />
        </mxCell>
        <mxCell id="P5K1z4J7jGN9G_LRExKV-15" value="&lt;span style=&quot;color: rgb(130, 179, 102);&quot;&gt;eth1&lt;/span&gt;" style="rounded=0;whiteSpace=wrap;html=1;fillColor=#d5e8d4;strokeColor=#82b366;fontStyle=1;strokeWidth=1;fontSize=16;" parent="1" vertex="1">
          <mxGeometry x="2010" y="-3150" width="90" height="50" as="geometry" />
        </mxCell>
        <mxCell id="P5K1z4J7jGN9G_LRExKV-16" value="" style="edgeStyle=orthogonalEdgeStyle;rounded=0;orthogonalLoop=1;jettySize=auto;html=1;endArrow=none;fillColor=#dae8fc;strokeColor=#6c8ebf;" parent="1" source="P5K1z4J7jGN9G_LRExKV-17" target="P5K1z4J7jGN9G_LRExKV-23" edge="1">
          <mxGeometry relative="1" as="geometry" />
        </mxCell>
        <mxCell id="P5K1z4J7jGN9G_LRExKV-17" value="&lt;span style=&quot;color: rgb(130, 179, 102);&quot;&gt;eth2&lt;/span&gt;" style="rounded=0;whiteSpace=wrap;html=1;fillColor=#d5e8d4;strokeColor=#82b366;fontStyle=1;strokeWidth=1;fontSize=16;" parent="1" vertex="1">
          <mxGeometry x="2010" y="-3095" width="90" height="50" as="geometry" />
        </mxCell>
        <mxCell id="P5K1z4J7jGN9G_LRExKV-18" value="" style="edgeStyle=orthogonalEdgeStyle;rounded=0;orthogonalLoop=1;jettySize=auto;html=1;endArrow=none;fillColor=#dae8fc;strokeColor=#6c8ebf;" parent="1" source="P5K1z4J7jGN9G_LRExKV-19" target="P5K1z4J7jGN9G_LRExKV-24" edge="1">
          <mxGeometry relative="1" as="geometry" />
        </mxCell>
        <mxCell id="P5K1z4J7jGN9G_LRExKV-19" value="&lt;span style=&quot;color: rgb(130, 179, 102);&quot;&gt;eth3&lt;/span&gt;" style="rounded=0;whiteSpace=wrap;html=1;fillColor=#d5e8d4;strokeColor=#82b366;fontStyle=1;strokeWidth=1;fontSize=16;" parent="1" vertex="1">
          <mxGeometry x="2010" y="-3040" width="90" height="50" as="geometry" />
        </mxCell>
        <mxCell id="P5K1z4J7jGN9G_LRExKV-20" value="" style="edgeStyle=orthogonalEdgeStyle;rounded=0;orthogonalLoop=1;jettySize=auto;html=1;endArrow=none;fillColor=#dae8fc;strokeColor=#6c8ebf;" parent="1" source="P5K1z4J7jGN9G_LRExKV-21" target="P5K1z4J7jGN9G_LRExKV-25" edge="1">
          <mxGeometry relative="1" as="geometry" />
        </mxCell>
        <mxCell id="P5K1z4J7jGN9G_LRExKV-21" value="&lt;span style=&quot;color: rgb(130, 179, 102);&quot;&gt;eth4&lt;/span&gt;" style="rounded=0;whiteSpace=wrap;html=1;fillColor=#d5e8d4;strokeColor=#82b366;fontStyle=1;strokeWidth=1;fontSize=16;" parent="1" vertex="1">
          <mxGeometry x="2010" y="-2985" width="90" height="50" as="geometry" />
        </mxCell>
        <mxCell id="P5K1z4J7jGN9G_LRExKV-22" value="LAN" style="whiteSpace=wrap;html=1;aspect=fixed;strokeWidth=3;" parent="1" vertex="1">
          <mxGeometry x="1900" y="-3150" width="50" height="50" as="geometry" />
        </mxCell>
        <mxCell id="P5K1z4J7jGN9G_LRExKV-23" value="LAN" style="whiteSpace=wrap;html=1;aspect=fixed;strokeWidth=3;" parent="1" vertex="1">
          <mxGeometry x="1900" y="-3095" width="50" height="50" as="geometry" />
        </mxCell>
        <mxCell id="P5K1z4J7jGN9G_LRExKV-24" value="LAN" style="whiteSpace=wrap;html=1;aspect=fixed;strokeWidth=3;" parent="1" vertex="1">
          <mxGeometry x="1900" y="-3040" width="50" height="50" as="geometry" />
        </mxCell>
        <mxCell id="P5K1z4J7jGN9G_LRExKV-25" value="LAN" style="whiteSpace=wrap;html=1;aspect=fixed;strokeWidth=3;" parent="1" vertex="1">
          <mxGeometry x="1900" y="-2985" width="50" height="50" as="geometry" />
        </mxCell>
        <mxCell id="P5K1z4J7jGN9G_LRExKV-26" value="&lt;font color=&quot;#d6b656&quot; style=&quot;font-size: 16px;&quot;&gt;erouter0_pipe&lt;br&gt;&lt;/font&gt;" style="rounded=0;whiteSpace=wrap;html=1;fillColor=#fff2cc;strokeColor=#d6b656;fontStyle=1;strokeWidth=2;fontSize=16;" parent="1" vertex="1">
          <mxGeometry x="2295" y="-2677.5" width="145" height="50" as="geometry" />
        </mxCell>
        <mxCell id="P5K1z4J7jGN9G_LRExKV-27" value="" style="edgeStyle=orthogonalEdgeStyle;rounded=0;orthogonalLoop=1;jettySize=auto;html=1;endArrow=none;fillColor=#dae8fc;strokeColor=#6c8ebf;" parent="1" source="P5K1z4J7jGN9G_LRExKV-28" target="P5K1z4J7jGN9G_LRExKV-37" edge="1">
          <mxGeometry relative="1" as="geometry" />
        </mxCell>
        <mxCell id="P5K1z4J7jGN9G_LRExKV-28" value="&lt;span style=&quot;color: rgb(130, 179, 102);&quot;&gt;eth1&lt;/span&gt;" style="rounded=0;whiteSpace=wrap;html=1;fillColor=#d5e8d4;strokeColor=#82b366;fontStyle=1;strokeWidth=1;fontSize=16;" parent="1" vertex="1">
          <mxGeometry x="2010" y="-2767.5" width="90" height="50" as="geometry" />
        </mxCell>
        <mxCell id="P5K1z4J7jGN9G_LRExKV-29" value="" style="edgeStyle=orthogonalEdgeStyle;rounded=0;orthogonalLoop=1;jettySize=auto;html=1;endArrow=none;fillColor=#dae8fc;strokeColor=#6c8ebf;" parent="1" source="P5K1z4J7jGN9G_LRExKV-30" target="P5K1z4J7jGN9G_LRExKV-38" edge="1">
          <mxGeometry relative="1" as="geometry" />
        </mxCell>
        <mxCell id="P5K1z4J7jGN9G_LRExKV-30" value="&lt;span style=&quot;color: rgb(130, 179, 102);&quot;&gt;eth2&lt;/span&gt;" style="rounded=0;whiteSpace=wrap;html=1;fillColor=#d5e8d4;strokeColor=#82b366;fontStyle=1;strokeWidth=1;fontSize=16;" parent="1" vertex="1">
          <mxGeometry x="2010" y="-2712.5" width="90" height="50" as="geometry" />
        </mxCell>
        <mxCell id="P5K1z4J7jGN9G_LRExKV-31" value="" style="edgeStyle=orthogonalEdgeStyle;rounded=0;orthogonalLoop=1;jettySize=auto;html=1;endArrow=none;fillColor=#dae8fc;strokeColor=#6c8ebf;" parent="1" source="P5K1z4J7jGN9G_LRExKV-32" target="P5K1z4J7jGN9G_LRExKV-39" edge="1">
          <mxGeometry relative="1" as="geometry" />
        </mxCell>
        <mxCell id="P5K1z4J7jGN9G_LRExKV-32" value="&lt;span style=&quot;color: rgb(130, 179, 102);&quot;&gt;eth3&lt;/span&gt;" style="rounded=0;whiteSpace=wrap;html=1;fillColor=#d5e8d4;strokeColor=#82b366;fontStyle=1;strokeWidth=1;fontSize=16;" parent="1" vertex="1">
          <mxGeometry x="2010" y="-2657.5" width="90" height="50" as="geometry" />
        </mxCell>
        <mxCell id="P5K1z4J7jGN9G_LRExKV-33" value="" style="edgeStyle=orthogonalEdgeStyle;rounded=0;orthogonalLoop=1;jettySize=auto;html=1;endArrow=none;fillColor=#dae8fc;strokeColor=#6c8ebf;" parent="1" source="P5K1z4J7jGN9G_LRExKV-34" target="P5K1z4J7jGN9G_LRExKV-40" edge="1">
          <mxGeometry relative="1" as="geometry" />
        </mxCell>
        <mxCell id="P5K1z4J7jGN9G_LRExKV-34" value="&lt;span style=&quot;color: rgb(130, 179, 102);&quot;&gt;eth4&lt;/span&gt;" style="rounded=0;whiteSpace=wrap;html=1;fillColor=#d5e8d4;strokeColor=#82b366;fontStyle=1;strokeWidth=1;fontSize=16;" parent="1" vertex="1">
          <mxGeometry x="2010" y="-2602.5" width="90" height="50" as="geometry" />
        </mxCell>
        <mxCell id="P5K1z4J7jGN9G_LRExKV-35" value="" style="edgeStyle=orthogonalEdgeStyle;rounded=0;orthogonalLoop=1;jettySize=auto;html=1;endArrow=none;fillColor=#fff2cc;strokeColor=#d6b656;" parent="1" source="P5K1z4J7jGN9G_LRExKV-56" target="P5K1z4J7jGN9G_LRExKV-26" edge="1">
          <mxGeometry relative="1" as="geometry">
            <Array as="points">
              <mxPoint x="2378" y="-2565" />
              <mxPoint x="2378" y="-2565" />
            </Array>
          </mxGeometry>
        </mxCell>
        <mxCell id="P5K1z4J7jGN9G_LRExKV-36" value="WAN" style="whiteSpace=wrap;html=1;aspect=fixed;strokeWidth=3;" parent="1" vertex="1">
          <mxGeometry x="2700" y="-2777.5" width="80" height="80" as="geometry" />
        </mxCell>
        <mxCell id="P5K1z4J7jGN9G_LRExKV-37" value="LAN" style="whiteSpace=wrap;html=1;aspect=fixed;strokeWidth=3;" parent="1" vertex="1">
          <mxGeometry x="1900" y="-2767.5" width="50" height="50" as="geometry" />
        </mxCell>
        <mxCell id="P5K1z4J7jGN9G_LRExKV-38" value="LAN" style="whiteSpace=wrap;html=1;aspect=fixed;strokeWidth=3;" parent="1" vertex="1">
          <mxGeometry x="1900" y="-2712.5" width="50" height="50" as="geometry" />
        </mxCell>
        <mxCell id="P5K1z4J7jGN9G_LRExKV-39" value="LAN" style="whiteSpace=wrap;html=1;aspect=fixed;strokeWidth=3;" parent="1" vertex="1">
          <mxGeometry x="1900" y="-2657.5" width="50" height="50" as="geometry" />
        </mxCell>
        <mxCell id="P5K1z4J7jGN9G_LRExKV-40" value="LAN" style="whiteSpace=wrap;html=1;aspect=fixed;strokeWidth=3;" parent="1" vertex="1">
          <mxGeometry x="1900" y="-2602.5" width="50" height="50" as="geometry" />
        </mxCell>
        <mxCell id="P5K1z4J7jGN9G_LRExKV-41" value="" style="edgeStyle=orthogonalEdgeStyle;rounded=0;orthogonalLoop=1;jettySize=auto;html=1;endArrow=none;fillColor=#fff2cc;strokeColor=#d6b656;" parent="1" source="P5K1z4J7jGN9G_LRExKV-42" target="P5K1z4J7jGN9G_LRExKV-51" edge="1">
          <mxGeometry relative="1" as="geometry">
            <mxPoint x="2520" y="-3057.5" as="targetPoint" />
          </mxGeometry>
        </mxCell>
        <mxCell id="P5K1z4J7jGN9G_LRExKV-42" value="&lt;b&gt;NAT&lt;/b&gt;&lt;div&gt;&lt;b&gt;DNS&lt;/b&gt;&lt;/div&gt;&lt;div&gt;&lt;b&gt;DHCP&lt;/b&gt;&lt;/div&gt;" style="shape=parallelogram;perimeter=parallelogramPerimeter;whiteSpace=wrap;html=1;fixedSize=1;strokeWidth=2;" parent="1" vertex="1">
          <mxGeometry x="2340" y="-3097.5" width="120" height="80" as="geometry" />
        </mxCell>
        <mxCell id="P5K1z4J7jGN9G_LRExKV-49" value="MV3 - SINGLE VLAN (20)" style="text;html=1;align=center;verticalAlign=middle;resizable=0;points=[];autosize=1;strokeColor=none;fillColor=none;fontStyle=1;fontSize=28;" parent="1" vertex="1">
          <mxGeometry x="1902.5" y="-3330" width="350" height="50" as="geometry" />
        </mxCell>
        <mxCell id="P5K1z4J7jGN9G_LRExKV-50" value="&lt;font color=&quot;#9673a6&quot;&gt;webui&lt;/font&gt;" style="rounded=0;whiteSpace=wrap;html=1;fillColor=#e1d5e7;strokeColor=#9673a6;fontStyle=1;strokeWidth=2;fontSize=16;shape=parallelogram;perimeter=parallelogramPerimeter;fixedSize=1;" parent="1" vertex="1">
          <mxGeometry x="1995" y="-2447.5" width="95" height="40" as="geometry" />
        </mxCell>
        <mxCell id="P5K1z4J7jGN9G_LRExKV-51" value="&lt;font color=&quot;#d6b656&quot;&gt;erouter0&lt;/font&gt;" style="rounded=0;whiteSpace=wrap;html=1;fillColor=#fff2cc;strokeColor=#d6b656;fontStyle=1;strokeWidth=2;fontSize=16;" parent="1" vertex="1">
          <mxGeometry x="2490" y="-3087.5" width="90" height="60" as="geometry" />
        </mxCell>
        <mxCell id="P5K1z4J7jGN9G_LRExKV-56" value="&lt;font color=&quot;#d6b656&quot;&gt;erouter0&lt;/font&gt;" style="rounded=0;whiteSpace=wrap;html=1;fillColor=#fff2cc;strokeColor=#d6b656;fontStyle=1;strokeWidth=2;fontSize=16;verticalAlign=top;" parent="1" vertex="1">
          <mxGeometry x="2280" y="-2510.75" width="217.5" height="102.5" as="geometry" />
        </mxCell>
        <mxCell id="P5K1z4J7jGN9G_LRExKV-59" value="&lt;font color=&quot;#d6b656&quot; style=&quot;font-size: 16px;&quot;&gt;wan_upper&lt;br&gt;&lt;/font&gt;" style="rounded=0;whiteSpace=wrap;html=1;fillColor=#fff2cc;strokeColor=#d6b656;fontStyle=1;strokeWidth=2;fontSize=16;" parent="1" vertex="1">
          <mxGeometry x="2295" y="-2762.5" width="145" height="50" as="geometry" />
        </mxCell>
        <mxCell id="P5K1z4J7jGN9G_LRExKV-61" value="" style="edgeStyle=orthogonalEdgeStyle;rounded=0;orthogonalLoop=1;jettySize=auto;html=1;endArrow=none;fillColor=#fff2cc;strokeColor=#d6b656;" parent="1" source="P5K1z4J7jGN9G_LRExKV-36" target="P5K1z4J7jGN9G_LRExKV-60" edge="1">
          <mxGeometry relative="1" as="geometry">
            <mxPoint x="2475" y="-2487.5" as="sourcePoint" />
            <mxPoint x="2450" y="-2642.5" as="targetPoint" />
            <Array as="points">
              <mxPoint x="2740" y="-2737.5" />
            </Array>
          </mxGeometry>
        </mxCell>
        <mxCell id="P5K1z4J7jGN9G_LRExKV-68" value="&lt;div style=&quot;font-size: 20px;&quot;&gt;&lt;font color=&quot;#82b366&quot; style=&quot;font-size: 20px;&quot;&gt;&lt;span style=&quot;font-size: 20px;&quot;&gt;&lt;b style=&quot;font-size: 20px;&quot;&gt;brlan0&lt;/b&gt;&lt;/span&gt;&lt;/font&gt;&lt;/div&gt;" style="rounded=1;whiteSpace=wrap;html=1;fillColor=#d5e8d4;strokeColor=#82b366;verticalAlign=top;strokeWidth=4;fontSize=20;" parent="1" vertex="1">
          <mxGeometry x="1982.5" y="-2327.5" width="540" height="277.5" as="geometry" />
        </mxCell>
        <mxCell id="P5K1z4J7jGN9G_LRExKV-69" value="&lt;font color=&quot;#d6b656&quot; style=&quot;font-size: 16px;&quot;&gt;erouter0_pipe&lt;br&gt;&lt;/font&gt;" style="rounded=0;whiteSpace=wrap;html=1;fillColor=#fff2cc;strokeColor=#d6b656;fontStyle=1;strokeWidth=2;fontSize=16;" parent="1" vertex="1">
          <mxGeometry x="2297.5" y="-2197.5" width="145" height="50" as="geometry" />
        </mxCell>
        <mxCell id="P5K1z4J7jGN9G_LRExKV-70" value="" style="edgeStyle=orthogonalEdgeStyle;rounded=0;orthogonalLoop=1;jettySize=auto;html=1;endArrow=none;fillColor=#dae8fc;strokeColor=#6c8ebf;" parent="1" source="P5K1z4J7jGN9G_LRExKV-71" target="P5K1z4J7jGN9G_LRExKV-80" edge="1">
          <mxGeometry relative="1" as="geometry" />
        </mxCell>
        <mxCell id="P5K1z4J7jGN9G_LRExKV-71" value="&lt;span style=&quot;color: rgb(130, 179, 102);&quot;&gt;eth1&lt;/span&gt;" style="rounded=0;whiteSpace=wrap;html=1;fillColor=#d5e8d4;strokeColor=#82b366;fontStyle=1;strokeWidth=1;fontSize=16;" parent="1" vertex="1">
          <mxGeometry x="2012.5" y="-2287.5" width="90" height="50" as="geometry" />
        </mxCell>
        <mxCell id="P5K1z4J7jGN9G_LRExKV-72" value="" style="edgeStyle=orthogonalEdgeStyle;rounded=0;orthogonalLoop=1;jettySize=auto;html=1;endArrow=none;fillColor=#dae8fc;strokeColor=#6c8ebf;" parent="1" source="P5K1z4J7jGN9G_LRExKV-73" target="P5K1z4J7jGN9G_LRExKV-81" edge="1">
          <mxGeometry relative="1" as="geometry" />
        </mxCell>
        <mxCell id="P5K1z4J7jGN9G_LRExKV-73" value="&lt;span style=&quot;color: rgb(130, 179, 102);&quot;&gt;eth2&lt;/span&gt;" style="rounded=0;whiteSpace=wrap;html=1;fillColor=#d5e8d4;strokeColor=#82b366;fontStyle=1;strokeWidth=1;fontSize=16;" parent="1" vertex="1">
          <mxGeometry x="2012.5" y="-2232.5" width="90" height="50" as="geometry" />
        </mxCell>
        <mxCell id="P5K1z4J7jGN9G_LRExKV-74" value="" style="edgeStyle=orthogonalEdgeStyle;rounded=0;orthogonalLoop=1;jettySize=auto;html=1;endArrow=none;fillColor=#dae8fc;strokeColor=#6c8ebf;" parent="1" source="P5K1z4J7jGN9G_LRExKV-75" target="P5K1z4J7jGN9G_LRExKV-82" edge="1">
          <mxGeometry relative="1" as="geometry" />
        </mxCell>
        <mxCell id="P5K1z4J7jGN9G_LRExKV-75" value="&lt;span style=&quot;color: rgb(130, 179, 102);&quot;&gt;eth3&lt;/span&gt;" style="rounded=0;whiteSpace=wrap;html=1;fillColor=#d5e8d4;strokeColor=#82b366;fontStyle=1;strokeWidth=1;fontSize=16;" parent="1" vertex="1">
          <mxGeometry x="2012.5" y="-2177.5" width="90" height="50" as="geometry" />
        </mxCell>
        <mxCell id="P5K1z4J7jGN9G_LRExKV-76" value="" style="edgeStyle=orthogonalEdgeStyle;rounded=0;orthogonalLoop=1;jettySize=auto;html=1;endArrow=none;fillColor=#dae8fc;strokeColor=#6c8ebf;" parent="1" source="P5K1z4J7jGN9G_LRExKV-77" target="P5K1z4J7jGN9G_LRExKV-83" edge="1">
          <mxGeometry relative="1" as="geometry" />
        </mxCell>
        <mxCell id="P5K1z4J7jGN9G_LRExKV-77" value="&lt;span style=&quot;color: rgb(130, 179, 102);&quot;&gt;eth4&lt;/span&gt;" style="rounded=0;whiteSpace=wrap;html=1;fillColor=#d5e8d4;strokeColor=#82b366;fontStyle=1;strokeWidth=1;fontSize=16;" parent="1" vertex="1">
          <mxGeometry x="2012.5" y="-2122.5" width="90" height="50" as="geometry" />
        </mxCell>
        <mxCell id="P5K1z4J7jGN9G_LRExKV-78" value="" style="edgeStyle=orthogonalEdgeStyle;rounded=0;orthogonalLoop=1;jettySize=auto;html=1;endArrow=none;fillColor=#fff2cc;strokeColor=#d6b656;" parent="1" source="P5K1z4J7jGN9G_LRExKV-86" target="P5K1z4J7jGN9G_LRExKV-69" edge="1">
          <mxGeometry relative="1" as="geometry">
            <Array as="points">
              <mxPoint x="2380" y="-2050" />
              <mxPoint x="2380" y="-2050" />
            </Array>
          </mxGeometry>
        </mxCell>
        <mxCell id="P5K1z4J7jGN9G_LRExKV-79" value="WAN" style="whiteSpace=wrap;html=1;aspect=fixed;strokeWidth=3;" parent="1" vertex="1">
          <mxGeometry x="2702.5" y="-2295" width="80" height="80" as="geometry" />
        </mxCell>
        <mxCell id="P5K1z4J7jGN9G_LRExKV-80" value="LAN" style="whiteSpace=wrap;html=1;aspect=fixed;strokeWidth=3;" parent="1" vertex="1">
          <mxGeometry x="1902.5" y="-2287.5" width="50" height="50" as="geometry" />
        </mxCell>
        <mxCell id="P5K1z4J7jGN9G_LRExKV-81" value="LAN" style="whiteSpace=wrap;html=1;aspect=fixed;strokeWidth=3;" parent="1" vertex="1">
          <mxGeometry x="1902.5" y="-2232.5" width="50" height="50" as="geometry" />
        </mxCell>
        <mxCell id="P5K1z4J7jGN9G_LRExKV-82" value="LAN" style="whiteSpace=wrap;html=1;aspect=fixed;strokeWidth=3;" parent="1" vertex="1">
          <mxGeometry x="1902.5" y="-2177.5" width="50" height="50" as="geometry" />
        </mxCell>
        <mxCell id="P5K1z4J7jGN9G_LRExKV-83" value="LAN" style="whiteSpace=wrap;html=1;aspect=fixed;strokeWidth=3;" parent="1" vertex="1">
          <mxGeometry x="1902.5" y="-2122.5" width="50" height="50" as="geometry" />
        </mxCell>
        <mxCell id="P5K1z4J7jGN9G_LRExKV-89" value="&lt;font color=&quot;#d6b656&quot; style=&quot;font-size: 16px;&quot;&gt;wan_upper&lt;br&gt;&lt;/font&gt;" style="rounded=0;whiteSpace=wrap;html=1;fillColor=#fff2cc;strokeColor=#d6b656;fontStyle=1;strokeWidth=2;fontSize=16;" parent="1" vertex="1">
          <mxGeometry x="2297.5" y="-2282.5" width="145" height="50" as="geometry" />
        </mxCell>
        <mxCell id="P5K1z4J7jGN9G_LRExKV-90" value="&lt;font color=&quot;#000000&quot;&gt;veip0.1&lt;/font&gt;" style="rounded=0;whiteSpace=wrap;html=1;fillColor=#f5f5f5;strokeColor=#666666;fontStyle=1;strokeWidth=2;fontSize=16;fontColor=#333333;" parent="1" vertex="1">
          <mxGeometry x="2442.5" y="-2282.5" width="60" height="50" as="geometry" />
        </mxCell>
        <mxCell id="P5K1z4J7jGN9G_LRExKV-91" value="" style="edgeStyle=orthogonalEdgeStyle;rounded=0;orthogonalLoop=1;jettySize=auto;html=1;endArrow=none;fillColor=#fff2cc;strokeColor=#d6b656;" parent="1" source="P5K1z4J7jGN9G_LRExKV-79" target="P5K1z4J7jGN9G_LRExKV-90" edge="1">
          <mxGeometry relative="1" as="geometry">
            <mxPoint x="2477.5" y="-2007.5" as="sourcePoint" />
            <mxPoint x="2452.5" y="-2162.5" as="targetPoint" />
            <Array as="points">
              <mxPoint x="2742.5" y="-2257.5" />
            </Array>
          </mxGeometry>
        </mxCell>
        <mxCell id="P5K1z4J7jGN9G_LRExKV-60" value="&lt;font color=&quot;#000000&quot;&gt;eth0&lt;/font&gt;" style="rounded=0;whiteSpace=wrap;html=1;fillColor=#f5f5f5;strokeColor=#666666;fontStyle=1;strokeWidth=2;fontSize=16;fontColor=#333333;" parent="1" vertex="1">
          <mxGeometry x="2440" y="-2762.5" width="60" height="50" as="geometry" />
        </mxCell>
        <mxCell id="P5K1z4J7jGN9G_LRExKV-6" value="&lt;font color=&quot;#000000&quot;&gt;eth0&lt;/font&gt;" style="rounded=0;whiteSpace=wrap;html=1;fillColor=#f5f5f5;strokeColor=#000000;fontStyle=1;strokeWidth=2;fontSize=16;fontColor=#333333;" parent="1" vertex="1">
          <mxGeometry x="2580" y="-3087.5" width="90" height="60" as="geometry" />
        </mxCell>
        <mxCell id="r4h9uiGMZSQ4bL8BECDt-133" value="&lt;font color=&quot;#000000&quot;&gt;eth0&lt;/font&gt;" style="rounded=0;whiteSpace=wrap;html=1;fillColor=#f5f5f5;strokeColor=#000000;fontStyle=1;strokeWidth=2;fontSize=16;fontColor=#333333;" parent="1" vertex="1">
          <mxGeometry x="1530" y="-3220" width="55" height="300" as="geometry" />
        </mxCell>
        <mxCell id="r4h9uiGMZSQ4bL8BECDt-183" value="&lt;font color=&quot;#000000&quot;&gt;eth0&lt;/font&gt;" style="rounded=0;whiteSpace=wrap;html=1;fillColor=#f5f5f5;strokeColor=#666666;fontStyle=1;strokeWidth=2;fontSize=16;fontColor=#333333;" parent="1" vertex="1">
          <mxGeometry x="1537.5" y="-2720" width="60" height="120" as="geometry" />
        </mxCell>
        <mxCell id="r4h9uiGMZSQ4bL8BECDt-258" value="&lt;font color=&quot;#000000&quot;&gt;veip0.1&lt;/font&gt;" style="rounded=0;whiteSpace=wrap;html=1;fillColor=#f5f5f5;strokeColor=#666666;fontStyle=1;strokeWidth=2;fontSize=16;fontColor=#333333;" parent="1" vertex="1">
          <mxGeometry x="1537.5" y="-2240" width="60" height="120" as="geometry" />
        </mxCell>
        <mxCell id="P5K1z4J7jGN9G_LRExKV-94" value="&lt;div&gt;&lt;font style=&quot;font-size: 16px;&quot; color=&quot;#b85450&quot;&gt;UDHCPC&lt;/font&gt;&lt;/div&gt;&lt;font style=&quot;font-size: 16px;&quot; color=&quot;#b85450&quot;&gt;10.107.200.x / 24&lt;/font&gt;" style="rounded=0;whiteSpace=wrap;html=1;fillColor=#f8cecc;strokeColor=#b85450;strokeWidth=2;dashed=1;fontSize=16;" parent="1" vertex="1">
          <mxGeometry x="2313.75" y="-2470.75" width="150" height="50" as="geometry" />
        </mxCell>
        <mxCell id="P5K1z4J7jGN9G_LRExKV-96" value="&lt;font style=&quot;font-size: 16px;&quot; color=&quot;#b85450&quot;&gt;10.107.200.x / 24&lt;/font&gt;" style="rounded=0;whiteSpace=wrap;html=1;fillColor=#f8cecc;strokeColor=#b85450;strokeWidth=2;dashed=1;fontSize=16;" parent="1" vertex="1">
          <mxGeometry x="-480" y="-2338.25" width="150" height="35" as="geometry" />
        </mxCell>
        <mxCell id="P5K1z4J7jGN9G_LRExKV-97" value="&lt;font color=&quot;#b85450&quot;&gt;tr069 / iperf&lt;/font&gt;" style="rounded=0;whiteSpace=wrap;html=1;fillColor=#f8cecc;strokeColor=#b85450;fontStyle=0;strokeWidth=2;fontSize=16;shape=parallelogram;perimeter=parallelogramPerimeter;fixedSize=1;" parent="1" vertex="1">
          <mxGeometry x="2500" y="-2020" width="115" height="40" as="geometry" />
        </mxCell>
        <mxCell id="9BxevrsAPOX1J1bJY9Lf-3" value="privbr&lt;div&gt;&lt;span style=&quot;background-color: initial; font-weight: normal;&quot;&gt;&lt;font style=&quot;font-size: 16px;&quot;&gt;172.31.255.32 / 24&lt;/font&gt;&lt;/span&gt;&lt;br&gt;&lt;/div&gt;" style="rounded=1;whiteSpace=wrap;html=1;fillColor=#dae8fc;strokeColor=#6c8ebf;fontStyle=1;fontSize=20;verticalAlign=top;strokeWidth=3;fontColor=#6c8ebf;" parent="1" vertex="1">
          <mxGeometry x="-452.5" y="-2061.87" width="152.5" height="123.75" as="geometry" />
        </mxCell>
        <mxCell id="9BxevrsAPOX1J1bJY9Lf-4" value="&lt;font color=&quot;#6c8ebf&quot;&gt;priv0&lt;/font&gt;" style="rounded=0;whiteSpace=wrap;html=1;fillColor=#dae8fc;strokeColor=#6c8ebf;fontStyle=1;strokeWidth=2;fontSize=16;" parent="1" vertex="1">
          <mxGeometry x="-400" y="-2003.12" width="57.5" height="50" as="geometry" />
        </mxCell>
        <mxCell id="9BxevrsAPOX1J1bJY9Lf-20" value="" style="edgeStyle=orthogonalEdgeStyle;rounded=0;orthogonalLoop=1;jettySize=auto;html=1;endArrow=none;fillColor=#e1d5e7;strokeColor=#9673a6;" parent="1" source="9BxevrsAPOX1J1bJY9Lf-21" target="9BxevrsAPOX1J1bJY9Lf-22" edge="1">
          <mxGeometry relative="1" as="geometry">
            <mxPoint x="1730" y="-1770" as="targetPoint" />
          </mxGeometry>
        </mxCell>
        <mxCell id="9BxevrsAPOX1J1bJY9Lf-21" value="&lt;font color=&quot;#9673a6&quot; style=&quot;font-size: 16px;&quot;&gt;llan0&lt;/font&gt;" style="rounded=0;whiteSpace=wrap;html=1;fillColor=#e1d5e7;strokeColor=#9673a6;fontStyle=1;strokeWidth=2;fontSize=16;" parent="1" vertex="1">
          <mxGeometry x="1055" y="-2135" width="60" height="50" as="geometry" />
        </mxCell>
        <mxCell id="9BxevrsAPOX1J1bJY9Lf-22" value="&lt;font color=&quot;#9673a6&quot; style=&quot;font-size: 16px;&quot;&gt;lan0&lt;/font&gt;&lt;div&gt;&lt;font color=&quot;#9673a6&quot;&gt;&lt;br&gt;&lt;/font&gt;&lt;div&gt;&lt;font color=&quot;#9673a6&quot; style=&quot;font-size: 16px;&quot;&gt;192.168.100.1 / 24&lt;/font&gt;&lt;/div&gt;&lt;/div&gt;" style="rounded=0;whiteSpace=wrap;html=1;fillColor=#e1d5e7;strokeColor=#9673a6;fontStyle=1;strokeWidth=2;fontSize=16;" parent="1" vertex="1">
          <mxGeometry x="1015" y="-2030" width="140" height="90" as="geometry" />
        </mxCell>
        <mxCell id="9BxevrsAPOX1J1bJY9Lf-23" value="&lt;font color=&quot;#9673a6&quot;&gt;webui&lt;/font&gt;" style="rounded=0;whiteSpace=wrap;html=1;fillColor=#e1d5e7;strokeColor=#9673a6;fontStyle=1;strokeWidth=2;fontSize=16;shape=parallelogram;perimeter=parallelogramPerimeter;fixedSize=1;" parent="1" vertex="1">
          <mxGeometry x="910" y="-1980" width="95" height="40" as="geometry" />
        </mxCell>
        <mxCell id="9BxevrsAPOX1J1bJY9Lf-24" value="" style="edgeStyle=orthogonalEdgeStyle;rounded=0;orthogonalLoop=1;jettySize=auto;html=1;endArrow=none;fillColor=#e1d5e7;strokeColor=#9673a6;" parent="1" source="9BxevrsAPOX1J1bJY9Lf-25" target="9BxevrsAPOX1J1bJY9Lf-26" edge="1">
          <mxGeometry relative="1" as="geometry">
            <mxPoint x="2815" y="-1757.5" as="targetPoint" />
          </mxGeometry>
        </mxCell>
        <mxCell id="9BxevrsAPOX1J1bJY9Lf-25" value="&lt;font color=&quot;#9673a6&quot; style=&quot;font-size: 16px;&quot;&gt;llan0&lt;/font&gt;" style="rounded=0;whiteSpace=wrap;html=1;fillColor=#e1d5e7;strokeColor=#9673a6;fontStyle=1;strokeWidth=2;fontSize=16;" parent="1" vertex="1">
          <mxGeometry x="2140" y="-2122.5" width="60" height="50" as="geometry" />
        </mxCell>
        <mxCell id="9BxevrsAPOX1J1bJY9Lf-26" value="&lt;font color=&quot;#9673a6&quot; style=&quot;font-size: 16px;&quot;&gt;lan0&lt;/font&gt;&lt;div&gt;&lt;font color=&quot;#9673a6&quot;&gt;&lt;br&gt;&lt;/font&gt;&lt;div&gt;&lt;font color=&quot;#9673a6&quot; style=&quot;font-size: 16px;&quot;&gt;192.168.100.1 / 24&lt;/font&gt;&lt;/div&gt;&lt;/div&gt;" style="rounded=0;whiteSpace=wrap;html=1;fillColor=#e1d5e7;strokeColor=#9673a6;fontStyle=1;strokeWidth=2;fontSize=16;" parent="1" vertex="1">
          <mxGeometry x="2100" y="-2017.5" width="140" height="90" as="geometry" />
        </mxCell>
        <mxCell id="9BxevrsAPOX1J1bJY9Lf-27" value="&lt;font color=&quot;#9673a6&quot;&gt;webui&lt;/font&gt;" style="rounded=0;whiteSpace=wrap;html=1;fillColor=#e1d5e7;strokeColor=#9673a6;fontStyle=1;strokeWidth=2;fontSize=16;shape=parallelogram;perimeter=parallelogramPerimeter;fixedSize=1;" parent="1" vertex="1">
          <mxGeometry x="1995" y="-1967.5" width="95" height="40" as="geometry" />
        </mxCell>
        <mxCell id="8VbZucI2dvGOZZcdEmdP-3" value="&lt;font color=&quot;#cfa548&quot; style=&quot;font-size: 18px;&quot;&gt;CM&lt;/font&gt;&lt;div style=&quot;font-size: 18px;&quot;&gt;&lt;font color=&quot;#cfa548&quot;&gt;&lt;br&gt;&lt;/font&gt;&lt;/div&gt;&lt;div style=&quot;font-size: 18px;&quot;&gt;&lt;font color=&quot;#cfa548&quot;&gt;192.168.200.1 / 24&lt;/font&gt;&lt;/div&gt;" style="rounded=0;whiteSpace=wrap;html=1;strokeWidth=3;fillColor=#ffe6cc;strokeColor=#d79b00;" parent="1" vertex="1">
          <mxGeometry x="455" y="-2482.5" width="180" height="80" as="geometry" />
        </mxCell>
        <mxCell id="8VbZucI2dvGOZZcdEmdP-5" value="privbr&lt;div&gt;&lt;span style=&quot;background-color: initial; font-weight: normal;&quot;&gt;&lt;font style=&quot;font-size: 14px;&quot;&gt;172.31.255.40 / 24&lt;/font&gt;&lt;/span&gt;&lt;br&gt;&lt;/div&gt;" style="rounded=1;whiteSpace=wrap;html=1;fillColor=#dae8fc;strokeColor=#6c8ebf;fontStyle=1;fontSize=20;verticalAlign=top;strokeWidth=3;fontColor=#6c8ebf;" parent="1" vertex="1">
          <mxGeometry x="-420" y="-3217.82" width="130" height="102.5" as="geometry" />
        </mxCell>
        <mxCell id="8VbZucI2dvGOZZcdEmdP-11" value="" style="edgeStyle=orthogonalEdgeStyle;rounded=0;orthogonalLoop=1;jettySize=auto;html=1;fillColor=#dae8fc;strokeColor=#6c8ebf;endArrow=none;" parent="1" source="8VbZucI2dvGOZZcdEmdP-6" target="8VbZucI2dvGOZZcdEmdP-9" edge="1">
          <mxGeometry relative="1" as="geometry">
            <mxPoint x="-277.5" y="-3141.547272727273" as="targetPoint" />
          </mxGeometry>
        </mxCell>
        <mxCell id="8VbZucI2dvGOZZcdEmdP-6" value="&lt;font color=&quot;#6c8ebf&quot;&gt;priv0&lt;/font&gt;" style="rounded=0;whiteSpace=wrap;html=1;fillColor=#dae8fc;strokeColor=#6c8ebf;fontStyle=1;strokeWidth=2;fontSize=16;" parent="1" vertex="1">
          <mxGeometry x="-370" y="-3156.57" width="47.5" height="31.25" as="geometry" />
        </mxCell>
        <mxCell id="8VbZucI2dvGOZZcdEmdP-7" value="Docsis&lt;div&gt;Bridge&lt;/div&gt;" style="whiteSpace=wrap;html=1;aspect=fixed;strokeWidth=3;fillColor=#f5f5f5;fontColor=#333333;strokeColor=#666666;" parent="1" vertex="1">
          <mxGeometry x="8.750000000000004" y="-3107.5" width="71.25" height="71.25" as="geometry" />
        </mxCell>
        <mxCell id="8VbZucI2dvGOZZcdEmdP-14" value="" style="edgeStyle=orthogonalEdgeStyle;rounded=0;orthogonalLoop=1;jettySize=auto;html=1;endArrow=none;fillColor=#dae8fc;strokeColor=#6c8ebf;" parent="1" source="8VbZucI2dvGOZZcdEmdP-9" target="8VbZucI2dvGOZZcdEmdP-7" edge="1">
          <mxGeometry relative="1" as="geometry">
            <mxPoint x="-133.75" y="-3171.2833333333338" as="targetPoint" />
            <Array as="points">
              <mxPoint x="50" y="-3150" />
            </Array>
          </mxGeometry>
        </mxCell>
        <mxCell id="8VbZucI2dvGOZZcdEmdP-9" value="&lt;font color=&quot;#6c8ebf&quot;&gt;ITC0&lt;/font&gt;" style="whiteSpace=wrap;html=1;aspect=fixed;strokeWidth=1;fillColor=#dae8fc;strokeColor=#6c8ebf;" parent="1" vertex="1">
          <mxGeometry x="-225" y="-3169.69" width="57.5" height="57.5" as="geometry" />
        </mxCell>
        <mxCell id="8VbZucI2dvGOZZcdEmdP-15" value="" style="edgeStyle=orthogonalEdgeStyle;rounded=0;orthogonalLoop=1;jettySize=auto;html=1;endArrow=none;fillColor=#fff2cc;strokeColor=#d6b656;" parent="1" source="r4h9uiGMZSQ4bL8BECDt-57" target="8VbZucI2dvGOZZcdEmdP-7" edge="1">
          <mxGeometry relative="1" as="geometry">
            <mxPoint x="-172" y="-3161.75" as="sourcePoint" />
            <mxPoint x="-111" y="-3116.75" as="targetPoint" />
            <Array as="points">
              <mxPoint x="50" y="-3006" />
            </Array>
          </mxGeometry>
        </mxCell>
        <mxCell id="8VbZucI2dvGOZZcdEmdP-18" value="" style="edgeStyle=orthogonalEdgeStyle;rounded=0;orthogonalLoop=1;jettySize=auto;html=1;endArrow=none;fillColor=#ffe6cc;strokeColor=#d79b00;" parent="1" source="8VbZucI2dvGOZZcdEmdP-7" target="8VbZucI2dvGOZZcdEmdP-19" edge="1">
          <mxGeometry relative="1" as="geometry">
            <mxPoint x="-172" y="-2996.75" as="sourcePoint" />
            <mxPoint x="-60" y="-3089.477272727273" as="targetPoint" />
            <Array as="points">
              <mxPoint x="-80" y="-3072" />
              <mxPoint x="-80" y="-3072" />
            </Array>
          </mxGeometry>
        </mxCell>
        <mxCell id="8VbZucI2dvGOZZcdEmdP-19" value="&lt;span style=&quot;font-size: 16px;&quot;&gt;CM&lt;/span&gt;&lt;div style=&quot;font-size: 16px;&quot;&gt;192.168.200.x / 24&lt;/div&gt;" style="rounded=0;whiteSpace=wrap;html=1;strokeWidth=3;fillColor=#ffe6cc;strokeColor=#d79b00;" parent="1" vertex="1">
          <mxGeometry x="-160" y="-3092.5" width="140" height="47.5" as="geometry" />
        </mxCell>
        <mxCell id="8VbZucI2dvGOZZcdEmdP-20" value="&lt;b style=&quot;font-size: 22px;&quot;&gt;CM&lt;/b&gt;" style="rounded=1;whiteSpace=wrap;html=1;fillColor=#f5f5f5;fontColor=#333333;strokeColor=#666666;strokeWidth=2;verticalAlign=top;fontSize=22;" parent="1" vertex="1">
          <mxGeometry x="-240" y="-2914.5" width="320" height="370" as="geometry" />
        </mxCell>
        <mxCell id="8VbZucI2dvGOZZcdEmdP-21" value="&lt;font color=&quot;#d6b656&quot;&gt;router&lt;/font&gt;&lt;div&gt;&lt;font color=&quot;#d6b656&quot;&gt;interface&lt;/font&gt;&lt;/div&gt;&lt;div&gt;&lt;font color=&quot;#d6b656&quot;&gt;(proxy)&lt;/font&gt;&lt;/div&gt;" style="whiteSpace=wrap;html=1;aspect=fixed;strokeWidth=1;fillColor=#fff2cc;strokeColor=#d6b656;" parent="1" vertex="1">
          <mxGeometry x="-230" y="-2709.5" width="57.5" height="57.5" as="geometry" />
        </mxCell>
        <mxCell id="8VbZucI2dvGOZZcdEmdP-22" value="Docsis&lt;div&gt;Bridge&lt;/div&gt;" style="whiteSpace=wrap;html=1;aspect=fixed;strokeWidth=3;fillColor=#f5f5f5;fontColor=#333333;strokeColor=#666666;" parent="1" vertex="1">
          <mxGeometry x="12.5" y="-2774.5" width="67.5" height="67.5" as="geometry" />
        </mxCell>
        <mxCell id="8VbZucI2dvGOZZcdEmdP-23" value="" style="edgeStyle=orthogonalEdgeStyle;rounded=0;orthogonalLoop=1;jettySize=auto;html=1;endArrow=none;fillColor=#dae8fc;strokeColor=#6c8ebf;" parent="1" source="8VbZucI2dvGOZZcdEmdP-24" target="8VbZucI2dvGOZZcdEmdP-22" edge="1">
          <mxGeometry relative="1" as="geometry">
            <mxPoint x="-123.75" y="-2807.5333333333338" as="targetPoint" />
          </mxGeometry>
        </mxCell>
        <mxCell id="8VbZucI2dvGOZZcdEmdP-24" value="&lt;font color=&quot;#6c8ebf&quot;&gt;ITC0&lt;/font&gt;" style="whiteSpace=wrap;html=1;aspect=fixed;strokeWidth=1;fillColor=#dae8fc;strokeColor=#6c8ebf;" parent="1" vertex="1">
          <mxGeometry x="-230" y="-2848.88" width="57.5" height="57.5" as="geometry" />
        </mxCell>
        <mxCell id="8VbZucI2dvGOZZcdEmdP-25" value="" style="edgeStyle=orthogonalEdgeStyle;rounded=0;orthogonalLoop=1;jettySize=auto;html=1;endArrow=none;fillColor=#fff2cc;strokeColor=#d6b656;" parent="1" source="8VbZucI2dvGOZZcdEmdP-21" target="8VbZucI2dvGOZZcdEmdP-22" edge="1">
          <mxGeometry relative="1" as="geometry">
            <mxPoint x="-162" y="-2798" as="sourcePoint" />
            <mxPoint x="-101" y="-2753" as="targetPoint" />
            <Array as="points">
              <mxPoint x="-80" y="-2681" />
              <mxPoint x="46" y="-2680" />
            </Array>
          </mxGeometry>
        </mxCell>
        <mxCell id="8VbZucI2dvGOZZcdEmdP-26" value="" style="edgeStyle=orthogonalEdgeStyle;rounded=0;orthogonalLoop=1;jettySize=auto;html=1;endArrow=none;fillColor=#ffe6cc;strokeColor=#d79b00;" parent="1" source="8VbZucI2dvGOZZcdEmdP-22" target="8VbZucI2dvGOZZcdEmdP-27" edge="1">
          <mxGeometry relative="1" as="geometry">
            <mxPoint x="-162" y="-2654.25" as="sourcePoint" />
            <mxPoint x="-50" y="-2746.977272727273" as="targetPoint" />
          </mxGeometry>
        </mxCell>
        <mxCell id="8VbZucI2dvGOZZcdEmdP-27" value="&lt;span style=&quot;font-size: 16px;&quot;&gt;CM&lt;/span&gt;&lt;div style=&quot;font-size: 16px;&quot;&gt;192.168.200.x / 24&lt;/div&gt;" style="rounded=0;whiteSpace=wrap;html=1;strokeWidth=3;fillColor=#ffe6cc;strokeColor=#d79b00;" parent="1" vertex="1">
          <mxGeometry x="-155" y="-2766.5" width="140" height="50.75" as="geometry" />
        </mxCell>
        <mxCell id="r4h9uiGMZSQ4bL8BECDt-271" value="" style="edgeStyle=orthogonalEdgeStyle;rounded=0;orthogonalLoop=1;jettySize=auto;html=1;endArrow=none;fillColor=#fff2cc;strokeColor=#d6b656;" parent="1" source="8VbZucI2dvGOZZcdEmdP-21" target="r4h9uiGMZSQ4bL8BECDt-268" edge="1">
          <mxGeometry relative="1" as="geometry">
            <mxPoint x="-240" y="-2739.5" as="targetPoint" />
            <mxPoint x="-240" y="-2737" as="sourcePoint" />
            <Array as="points">
              <mxPoint x="-201" y="-2694.5" />
            </Array>
          </mxGeometry>
        </mxCell>
        <mxCell id="8VbZucI2dvGOZZcdEmdP-28" value="&lt;b style=&quot;font-size: 22px;&quot;&gt;CM&lt;/b&gt;" style="rounded=1;whiteSpace=wrap;html=1;fillColor=#f5f5f5;fontColor=#333333;strokeColor=#666666;strokeWidth=2;verticalAlign=top;fontSize=22;" parent="1" vertex="1">
          <mxGeometry x="-240" y="-2544.5" width="320" height="660" as="geometry" />
        </mxCell>
        <mxCell id="8VbZucI2dvGOZZcdEmdP-29" value="&lt;font color=&quot;#d6b656&quot;&gt;router&lt;/font&gt;&lt;div&gt;&lt;font color=&quot;#d6b656&quot;&gt;interface&lt;/font&gt;&lt;/div&gt;&lt;div&gt;&lt;font color=&quot;#d6b656&quot;&gt;(proxy)&lt;/font&gt;&lt;/div&gt;" style="whiteSpace=wrap;html=1;aspect=fixed;strokeWidth=1;fillColor=#fff2cc;strokeColor=#d6b656;" parent="1" vertex="1">
          <mxGeometry x="-230" y="-2383.25" width="57.5" height="57.5" as="geometry" />
        </mxCell>
        <mxCell id="8VbZucI2dvGOZZcdEmdP-30" value="Docsis&lt;div&gt;Bridge&lt;/div&gt;" style="whiteSpace=wrap;html=1;aspect=fixed;strokeWidth=3;fillColor=#f5f5f5;fontColor=#333333;strokeColor=#666666;" parent="1" vertex="1">
          <mxGeometry x="12.5" y="-2291.25" width="67.5" height="67.5" as="geometry" />
        </mxCell>
        <mxCell id="8VbZucI2dvGOZZcdEmdP-31" value="" style="edgeStyle=orthogonalEdgeStyle;rounded=0;orthogonalLoop=1;jettySize=auto;html=1;endArrow=none;fillColor=#dae8fc;strokeColor=#6c8ebf;" parent="1" source="8VbZucI2dvGOZZcdEmdP-32" target="8VbZucI2dvGOZZcdEmdP-30" edge="1">
          <mxGeometry relative="1" as="geometry">
            <mxPoint x="-123.75" y="-2437.5333333333338" as="targetPoint" />
          </mxGeometry>
        </mxCell>
        <mxCell id="8VbZucI2dvGOZZcdEmdP-32" value="&lt;font color=&quot;#6c8ebf&quot;&gt;ITC0&lt;/font&gt;" style="whiteSpace=wrap;html=1;aspect=fixed;strokeWidth=1;fillColor=#dae8fc;strokeColor=#6c8ebf;" parent="1" vertex="1">
          <mxGeometry x="-230" y="-2006.87" width="57.5" height="57.5" as="geometry" />
        </mxCell>
        <mxCell id="8VbZucI2dvGOZZcdEmdP-33" value="" style="edgeStyle=orthogonalEdgeStyle;rounded=0;orthogonalLoop=1;jettySize=auto;html=1;endArrow=none;fillColor=#fff2cc;strokeColor=#d6b656;" parent="1" source="8VbZucI2dvGOZZcdEmdP-29" target="8VbZucI2dvGOZZcdEmdP-30" edge="1">
          <mxGeometry relative="1" as="geometry">
            <mxPoint x="-162" y="-2428" as="sourcePoint" />
            <mxPoint x="-101" y="-2383" as="targetPoint" />
          </mxGeometry>
        </mxCell>
        <mxCell id="8VbZucI2dvGOZZcdEmdP-34" value="" style="edgeStyle=orthogonalEdgeStyle;rounded=0;orthogonalLoop=1;jettySize=auto;html=1;endArrow=none;fillColor=#ffe6cc;strokeColor=#d79b00;" parent="1" source="8VbZucI2dvGOZZcdEmdP-30" target="8VbZucI2dvGOZZcdEmdP-35" edge="1">
          <mxGeometry relative="1" as="geometry">
            <mxPoint x="-162" y="-2263" as="sourcePoint" />
            <mxPoint x="-50" y="-2355.727272727273" as="targetPoint" />
          </mxGeometry>
        </mxCell>
        <mxCell id="8VbZucI2dvGOZZcdEmdP-35" value="&lt;span style=&quot;font-size: 16px;&quot;&gt;CM&lt;/span&gt;&lt;div style=&quot;font-size: 16px;&quot;&gt;192.168.200.x / 24&lt;/div&gt;" style="rounded=0;whiteSpace=wrap;html=1;strokeWidth=3;fillColor=#ffe6cc;strokeColor=#d79b00;" parent="1" vertex="1">
          <mxGeometry x="-180" y="-2281.25" width="140" height="47.5" as="geometry" />
        </mxCell>
        <mxCell id="8VbZucI2dvGOZZcdEmdP-36" value="privbr&lt;div&gt;&lt;span style=&quot;background-color: initial; font-weight: normal;&quot;&gt;&lt;font style=&quot;font-size: 14px;&quot;&gt;172.31.255.40 / 24&lt;/font&gt;&lt;/span&gt;&lt;br&gt;&lt;/div&gt;" style="rounded=1;whiteSpace=wrap;html=1;fillColor=#dae8fc;strokeColor=#6c8ebf;fontStyle=1;fontSize=20;verticalAlign=top;strokeWidth=3;fontColor=#6c8ebf;" parent="1" vertex="1">
          <mxGeometry x="-423" y="-2897" width="130" height="102.5" as="geometry" />
        </mxCell>
        <mxCell id="8VbZucI2dvGOZZcdEmdP-37" value="&lt;font color=&quot;#6c8ebf&quot;&gt;priv0&lt;/font&gt;" style="rounded=0;whiteSpace=wrap;html=1;fillColor=#dae8fc;strokeColor=#6c8ebf;fontStyle=1;strokeWidth=2;fontSize=16;" parent="1" vertex="1">
          <mxGeometry x="-370.5" y="-2835.75" width="47.5" height="31.25" as="geometry" />
        </mxCell>
        <mxCell id="8VbZucI2dvGOZZcdEmdP-38" value="" style="edgeStyle=orthogonalEdgeStyle;rounded=0;orthogonalLoop=1;jettySize=auto;html=1;fillColor=#dae8fc;strokeColor=#6c8ebf;endArrow=none;" parent="1" source="8VbZucI2dvGOZZcdEmdP-37" target="8VbZucI2dvGOZZcdEmdP-24" edge="1">
          <mxGeometry relative="1" as="geometry">
            <mxPoint x="-305" y="-3165.5" as="sourcePoint" />
            <mxPoint x="-208" y="-3165.5" as="targetPoint" />
          </mxGeometry>
        </mxCell>
        <mxCell id="8VbZucI2dvGOZZcdEmdP-39" value="" style="edgeStyle=orthogonalEdgeStyle;rounded=0;orthogonalLoop=1;jettySize=auto;html=1;fillColor=#dae8fc;strokeColor=#6c8ebf;endArrow=none;" parent="1" source="9BxevrsAPOX1J1bJY9Lf-4" target="8VbZucI2dvGOZZcdEmdP-32" edge="1">
          <mxGeometry relative="1" as="geometry">
            <mxPoint x="-320" y="-2809.5" as="sourcePoint" />
            <mxPoint x="-220" y="-2810.5" as="targetPoint" />
          </mxGeometry>
        </mxCell>
        <mxCell id="cthhICXNC1zGlrCf-kci-2" value="" style="edgeStyle=orthogonalEdgeStyle;rounded=0;orthogonalLoop=1;jettySize=auto;html=1;endArrow=none;" parent="1" source="cthhICXNC1zGlrCf-kci-1" target="r4h9uiGMZSQ4bL8BECDt-106" edge="1">
          <mxGeometry relative="1" as="geometry" />
        </mxCell>
        <mxCell id="cthhICXNC1zGlrCf-kci-3" value="" style="edgeStyle=orthogonalEdgeStyle;rounded=0;orthogonalLoop=1;jettySize=auto;html=1;endArrow=none;" parent="1" source="cthhICXNC1zGlrCf-kci-1" target="r4h9uiGMZSQ4bL8BECDt-96" edge="1">
          <mxGeometry relative="1" as="geometry">
            <Array as="points">
              <mxPoint x="610" y="-2760" />
              <mxPoint x="610" y="-2760" />
            </Array>
          </mxGeometry>
        </mxCell>
        <mxCell id="cthhICXNC1zGlrCf-kci-1" value="" style="ellipse;shape=cloud;whiteSpace=wrap;html=1;" parent="1" vertex="1">
          <mxGeometry x="550" y="-2816.5" width="120" height="49" as="geometry" />
        </mxCell>
        <mxCell id="QzHVOgRcKzOyaqy4Foj3-2" value="&lt;font color=&quot;#b85450&quot;&gt;tr069 / iperf&lt;/font&gt;" style="rounded=0;whiteSpace=wrap;html=1;fillColor=#f8cecc;strokeColor=#b85450;fontStyle=0;strokeWidth=2;fontSize=16;shape=parallelogram;perimeter=parallelogramPerimeter;fixedSize=1;" parent="1" vertex="1">
          <mxGeometry x="2515" y="-2479.5" width="115" height="40" as="geometry" />
        </mxCell>
        <mxCell id="QzHVOgRcKzOyaqy4Foj3-3" value="&lt;div style=&quot;font-size: 12px;&quot;&gt;&lt;font style=&quot;font-size: 12px;&quot; color=&quot;#b85450&quot;&gt;UDHCPC&lt;/font&gt;&lt;/div&gt;&lt;font style=&quot;font-size: 12px;&quot; color=&quot;#b85450&quot;&gt;10.178.200.x / 24&lt;/font&gt;" style="rounded=0;whiteSpace=wrap;html=1;fillColor=#f8cecc;strokeColor=#b85450;strokeWidth=2;dashed=1;fontSize=12;" parent="1" vertex="1">
          <mxGeometry x="1420" y="-3163.13" width="100" height="37.81" as="geometry" />
        </mxCell>
        <mxCell id="QzHVOgRcKzOyaqy4Foj3-4" value="&lt;div style=&quot;font-size: 12px;&quot;&gt;&lt;font style=&quot;font-size: 12px;&quot; color=&quot;#b85450&quot;&gt;UDHCPC&lt;/font&gt;&lt;/div&gt;&lt;font style=&quot;font-size: 12px;&quot; color=&quot;#b85450&quot;&gt;10.177.200.x / 24&lt;/font&gt;" style="rounded=0;whiteSpace=wrap;html=1;fillColor=#f8cecc;strokeColor=#b85450;strokeWidth=2;dashed=1;fontSize=12;" parent="1" vertex="1">
          <mxGeometry x="1420" y="-3067.81" width="100" height="37.81" as="geometry" />
        </mxCell>
        <mxCell id="QzHVOgRcKzOyaqy4Foj3-5" value="&lt;div style=&quot;font-size: 12px;&quot;&gt;&lt;font style=&quot;font-size: 12px;&quot; color=&quot;#b85450&quot;&gt;UDHCPC&lt;/font&gt;&lt;/div&gt;&lt;font style=&quot;font-size: 12px;&quot; color=&quot;#b85450&quot;&gt;10.179.200.x / 24&lt;/font&gt;" style="rounded=0;whiteSpace=wrap;html=1;fillColor=#f8cecc;strokeColor=#b85450;strokeWidth=2;dashed=1;fontSize=12;" parent="1" vertex="1">
          <mxGeometry x="1420" y="-2972.81" width="100" height="37.81" as="geometry" />
        </mxCell>
        <mxCell id="QzHVOgRcKzOyaqy4Foj3-6" value="&lt;font color=&quot;#b85450&quot;&gt;tr069&lt;/font&gt;" style="rounded=0;whiteSpace=wrap;html=1;fillColor=#f8cecc;strokeColor=#b85450;fontStyle=0;strokeWidth=2;fontSize=16;shape=parallelogram;perimeter=parallelogramPerimeter;fixedSize=1;" parent="1" vertex="1">
          <mxGeometry x="1310" y="-3068.9" width="85" height="40" as="geometry" />
        </mxCell>
        <mxCell id="QzHVOgRcKzOyaqy4Foj3-8" value="" style="rounded=0;whiteSpace=wrap;html=1;fillColor=#f8cecc;strokeColor=#b85450;" parent="1" vertex="1">
          <mxGeometry x="1480" y="-2675" width="50" height="10" as="geometry" />
        </mxCell>
        <mxCell id="QzHVOgRcKzOyaqy4Foj3-9" value="" style="rounded=0;whiteSpace=wrap;html=1;fillColor=#f8cecc;strokeColor=#b85450;" parent="1" vertex="1">
          <mxGeometry x="1480" y="-2615" width="50" height="10" as="geometry" />
        </mxCell>
        <mxCell id="QzHVOgRcKzOyaqy4Foj3-10" value="" style="rounded=0;whiteSpace=wrap;html=1;fillColor=#f8cecc;strokeColor=#b85450;" parent="1" vertex="1">
          <mxGeometry x="1480" y="-2197.5" width="50" height="10" as="geometry" />
        </mxCell>
        <mxCell id="QzHVOgRcKzOyaqy4Foj3-11" value="" style="rounded=0;whiteSpace=wrap;html=1;fillColor=#f8cecc;strokeColor=#b85450;" parent="1" vertex="1">
          <mxGeometry x="1480" y="-2140" width="50" height="10" as="geometry" />
        </mxCell>
      </root>
    </mxGraphModel>
  </diagram>
  <diagram id="AOmbG_Rww5UJ9dvBLd9T" name="Page-2">
    <mxGraphModel dx="1756" dy="988" grid="1" gridSize="10" guides="1" tooltips="1" connect="1" arrows="1" fold="1" page="1" pageScale="1" pageWidth="1100" pageHeight="850" math="0" shadow="0">
      <root>
        <mxCell id="0" />
        <mxCell id="1" parent="0" />
        <mxCell id="pxfZVMMrVhm6l3jTbPGw-5" value="" style="rounded=1;whiteSpace=wrap;html=1;" vertex="1" parent="1">
          <mxGeometry x="40" y="70" width="450" height="220" as="geometry" />
        </mxCell>
        <mxCell id="pxfZVMMrVhm6l3jTbPGw-16" value="" style="edgeStyle=orthogonalEdgeStyle;rounded=0;orthogonalLoop=1;jettySize=auto;html=1;" edge="1" parent="1" source="pxfZVMMrVhm6l3jTbPGw-7" target="pxfZVMMrVhm6l3jTbPGw-12">
          <mxGeometry relative="1" as="geometry" />
        </mxCell>
        <mxCell id="pxfZVMMrVhm6l3jTbPGw-11" value="" style="edgeStyle=orthogonalEdgeStyle;rounded=0;orthogonalLoop=1;jettySize=auto;html=1;" edge="1" parent="1" source="pxfZVMMrVhm6l3jTbPGw-1" target="pxfZVMMrVhm6l3jTbPGw-7">
          <mxGeometry relative="1" as="geometry" />
        </mxCell>
        <mxCell id="pxfZVMMrVhm6l3jTbPGw-1" value="Device.X_LGI-COM_Gateway.ErouterModeControl" style="rounded=1;whiteSpace=wrap;html=1;" vertex="1" parent="1">
          <mxGeometry x="70" y="90" width="290" height="30" as="geometry" />
        </mxCell>
        <mxCell id="pxfZVMMrVhm6l3jTbPGw-3" value="" style="edgeStyle=orthogonalEdgeStyle;rounded=0;orthogonalLoop=1;jettySize=auto;html=1;" edge="1" parent="1" source="pxfZVMMrVhm6l3jTbPGw-2" target="pxfZVMMrVhm6l3jTbPGw-1">
          <mxGeometry relative="1" as="geometry">
            <Array as="points">
              <mxPoint x="150" y="60" />
              <mxPoint x="215" y="60" />
            </Array>
          </mxGeometry>
        </mxCell>
        <mxCell id="pxfZVMMrVhm6l3jTbPGw-2" value="&quot;ipDisabled&quot;" style="text;html=1;align=center;verticalAlign=middle;whiteSpace=wrap;rounded=0;" vertex="1" parent="1">
          <mxGeometry x="120" y="20" width="60" height="30" as="geometry" />
        </mxCell>
        <mxCell id="pxfZVMMrVhm6l3jTbPGw-6" value="PAM" style="text;html=1;align=center;verticalAlign=middle;resizable=0;points=[];autosize=1;strokeColor=none;fillColor=none;" vertex="1" parent="1">
          <mxGeometry x="420" y="90" width="50" height="30" as="geometry" />
        </mxCell>
        <mxCell id="pxfZVMMrVhm6l3jTbPGw-10" value="" style="edgeStyle=orthogonalEdgeStyle;rounded=0;orthogonalLoop=1;jettySize=auto;html=1;entryX=0.5;entryY=0.667;entryDx=0;entryDy=0;entryPerimeter=0;" edge="1" parent="1" source="pxfZVMMrVhm6l3jTbPGw-7" target="pxfZVMMrVhm6l3jTbPGw-8">
          <mxGeometry relative="1" as="geometry">
            <mxPoint x="215" y="260" as="targetPoint" />
          </mxGeometry>
        </mxCell>
        <mxCell id="pxfZVMMrVhm6l3jTbPGw-7" value="" style="rounded=1;whiteSpace=wrap;html=1;" vertex="1" parent="1">
          <mxGeometry x="70" y="150" width="290" height="110" as="geometry" />
        </mxCell>
        <mxCell id="pxfZVMMrVhm6l3jTbPGw-8" value="REBOOT" style="rounded=1;whiteSpace=wrap;html=1;" vertex="1" parent="1">
          <mxGeometry x="170" y="320" width="90" height="30" as="geometry" />
        </mxCell>
        <mxCell id="pxfZVMMrVhm6l3jTbPGw-12" value="syscfg bridge_mode&lt;div&gt;sysevent bridge_mode&lt;/div&gt;" style="rounded=1;whiteSpace=wrap;html=1;" vertex="1" parent="1">
          <mxGeometry x="520" y="180" width="170" height="50" as="geometry" />
        </mxCell>
        <mxCell id="pxfZVMMrVhm6l3jTbPGw-15" value="" style="edgeStyle=orthogonalEdgeStyle;rounded=0;orthogonalLoop=1;jettySize=auto;html=1;" edge="1" parent="1" source="pxfZVMMrVhm6l3jTbPGw-14" target="pxfZVMMrVhm6l3jTbPGw-1">
          <mxGeometry relative="1" as="geometry">
            <Array as="points">
              <mxPoint x="320" y="60" />
              <mxPoint x="215" y="60" />
            </Array>
          </mxGeometry>
        </mxCell>
        <mxCell id="pxfZVMMrVhm6l3jTbPGw-14" value="&quot;honoreRouterInitMode&quot;" style="text;html=1;align=center;verticalAlign=middle;whiteSpace=wrap;rounded=0;" vertex="1" parent="1">
          <mxGeometry x="290" y="20" width="60" height="30" as="geometry" />
        </mxCell>
        <mxCell id="pxfZVMMrVhm6l3jTbPGw-19" value="" style="edgeStyle=orthogonalEdgeStyle;rounded=0;orthogonalLoop=1;jettySize=auto;html=1;" edge="1" parent="1" source="pxfZVMMrVhm6l3jTbPGw-17" target="pxfZVMMrVhm6l3jTbPGw-18">
          <mxGeometry relative="1" as="geometry">
            <mxPoint x="260" y="425" as="sourcePoint" />
          </mxGeometry>
        </mxCell>
        <mxCell id="pxfZVMMrVhm6l3jTbPGw-17" value="BOOT" style="rounded=1;whiteSpace=wrap;html=1;" vertex="1" parent="1">
          <mxGeometry x="147.5" y="370" width="60" height="30" as="geometry" />
        </mxCell>
        <mxCell id="pxfZVMMrVhm6l3jTbPGw-18" value="utopia_init.sh" style="rounded=1;whiteSpace=wrap;html=1;verticalAlign=top;" vertex="1" parent="1">
          <mxGeometry x="102.5" y="425" width="150" height="240" as="geometry" />
        </mxCell>
        <mxCell id="pxfZVMMrVhm6l3jTbPGw-20" value="service&lt;div&gt;registration&lt;/div&gt;" style="rounded=1;whiteSpace=wrap;html=1;" vertex="1" parent="1">
          <mxGeometry x="132.5" y="580" width="90" height="30" as="geometry" />
        </mxCell>
        <mxCell id="pxfZVMMrVhm6l3jTbPGw-21" value="start&lt;div&gt;syseventd&lt;/div&gt;" style="rounded=1;whiteSpace=wrap;html=1;" vertex="1" parent="1">
          <mxGeometry x="132.5" y="500" width="90" height="30" as="geometry" />
        </mxCell>
        <mxCell id="pxfZVMMrVhm6l3jTbPGw-22" value="&lt;div&gt;create&lt;/div&gt;syscfg" style="rounded=1;whiteSpace=wrap;html=1;" vertex="1" parent="1">
          <mxGeometry x="132.5" y="460" width="90" height="30" as="geometry" />
        </mxCell>
        <mxCell id="pxfZVMMrVhm6l3jTbPGw-23" value="apply&lt;div&gt;system defaults&lt;/div&gt;" style="rounded=1;whiteSpace=wrap;html=1;" vertex="1" parent="1">
          <mxGeometry x="132.5" y="540" width="90" height="30" as="geometry" />
        </mxCell>
        <mxCell id="pxfZVMMrVhm6l3jTbPGw-24" value="psm defaults&lt;div&gt;create&lt;/div&gt;" style="rounded=1;whiteSpace=wrap;html=1;" vertex="1" parent="1">
          <mxGeometry x="132.5" y="620" width="90" height="30" as="geometry" />
        </mxCell>
        <mxCell id="pxfZVMMrVhm6l3jTbPGw-25" value="" style="edgeStyle=orthogonalEdgeStyle;rounded=0;orthogonalLoop=1;jettySize=auto;html=1;" edge="1" parent="1" target="pxfZVMMrVhm6l3jTbPGw-26" source="pxfZVMMrVhm6l3jTbPGw-17">
          <mxGeometry relative="1" as="geometry">
            <mxPoint x="375.5" y="400" as="sourcePoint" />
            <Array as="points">
              <mxPoint x="178" y="410" />
              <mxPoint x="345" y="410" />
            </Array>
          </mxGeometry>
        </mxCell>
        <mxCell id="pxfZVMMrVhm6l3jTbPGw-26" value="cosa_start" style="rounded=1;whiteSpace=wrap;html=1;verticalAlign=top;" vertex="1" parent="1">
          <mxGeometry x="270" y="425" width="150" height="240" as="geometry" />
        </mxCell>
        <mxCell id="pxfZVMMrVhm6l3jTbPGw-32" value="rbus&lt;div&gt;&lt;/div&gt;" style="rounded=1;whiteSpace=wrap;html=1;" vertex="1" parent="1">
          <mxGeometry x="325" y="460" width="40" height="30" as="geometry" />
        </mxCell>
        <mxCell id="pxfZVMMrVhm6l3jTbPGw-33" value="Cr&lt;div&gt;&lt;/div&gt;" style="rounded=1;whiteSpace=wrap;html=1;" vertex="1" parent="1">
          <mxGeometry x="300" y="500" width="90" height="30" as="geometry" />
        </mxCell>
        <mxCell id="pxfZVMMrVhm6l3jTbPGw-34" value="Psm&amp;nbsp;&lt;div&gt;&lt;/div&gt;" style="rounded=1;whiteSpace=wrap;html=1;" vertex="1" parent="1">
          <mxGeometry x="300" y="540" width="90" height="30" as="geometry" />
        </mxCell>
        <mxCell id="pxfZVMMrVhm6l3jTbPGw-35" value="CM Agent&lt;div&gt;&lt;/div&gt;" style="rounded=1;whiteSpace=wrap;html=1;" vertex="1" parent="1">
          <mxGeometry x="300" y="580" width="90" height="30" as="geometry" />
        </mxCell>
        <mxCell id="pxfZVMMrVhm6l3jTbPGw-36" value="CM Agent" style="rounded=1;whiteSpace=wrap;html=1;verticalAlign=top;" vertex="1" parent="1">
          <mxGeometry x="460" y="350" width="580" height="450" as="geometry" />
        </mxCell>
        <mxCell id="pxfZVMMrVhm6l3jTbPGw-37" value="GWP_act_DocsisInited_callback&amp;nbsp;&lt;div&gt;&lt;/div&gt;" style="rounded=1;whiteSpace=wrap;html=1;" vertex="1" parent="1">
          <mxGeometry x="505" y="410" width="235" height="30" as="geometry" />
        </mxCell>
      </root>
    </mxGraphModel>
  </diagram>
</mxfile>
